<svg xmlns="http://www.w3.org/2000/svg" width="24" height="24" viewBox="0 0 21 21" fill="none" stroke="currentColor" stroke-width="2" stroke-linecap="round" stroke-linejoin="round">
<path d="M10.5 6.5C12.1569 6.5 13.5 5.15685 13.5 3.5C13.5 1.84315 12.1569 0.5 10.5 0.5C8.84315 0.5 7.5 1.84315 7.5 3.5C7.5 5.15685 8.84315 6.5 10.5 6.5ZM10.5 6.5V20.5M10.5 20.5C7.84784 20.5 5.3043 19.4464 3.42893 17.5711C1.55357 15.6957 0.5 13.1522 0.5 10.5H3.5M10.5 20.5C13.1522 20.5 15.6957 19.4464 17.5711 17.5711C19.4464 15.6957 20.5 13.1522 20.5 10.5H17.5"  stroke-linecap="round" stroke-linejoin="round"/>
</svg>
