<svg xmlns="http://www.w3.org/2000/svg" width="24" height="24" viewBox="0 0 21 19" fill="none" stroke="currentColor" stroke-width="2" stroke-linecap="round" stroke-linejoin="round">
<path d="M2.50002 5.49661C2.33601 5.49238 2.21691 5.48289 2.10984 5.46159C1.31646 5.30378 0.696261 4.68358 0.538448 3.8902C0.500019 3.697 0.500019 3.46467 0.500019 3.00002C0.500019 2.53536 0.500019 2.30304 0.538448 2.10984C0.696261 1.31646 1.31646 0.696261 2.10984 0.538448C2.30304 0.500019 2.53536 0.500019 3.00002 0.500019H18C18.4647 0.500019 18.697 0.500019 18.8902 0.538448C19.6836 0.696261 20.3038 1.31646 20.4616 2.10984C20.5 2.30304 20.5 2.53536 20.5 3.00002C20.5 3.46467 20.5 3.697 20.4616 3.8902C20.3038 4.68358 19.6836 5.30378 18.8902 5.46159C18.7831 5.48289 18.664 5.49238 18.5 5.49661M8.50002 10.5H12.5M2.50002 5.50002H18.5V13.7C18.5 15.3802 18.5 16.2203 18.173 16.862C17.8854 17.4265 17.4265 17.8854 16.862 18.173C16.2203 18.5 15.3802 18.5 13.7 18.5H7.30002C5.61986 18.5 4.77978 18.5 4.13805 18.173C3.57356 17.8854 3.11462 17.4265 2.827 16.862C2.50002 16.2203 2.50002 15.3802 2.50002 13.7V5.50002Z"  stroke-linecap="round" stroke-linejoin="round"/>
</svg>
