<svg xmlns="http://www.w3.org/2000/svg" width="24" height="24" viewBox="0 0 21 21" fill="none" stroke="currentColor" stroke-width="2" stroke-linecap="round" stroke-linejoin="round">
<path d="M14.5 6.49938V11.4994C14.5 12.295 14.8161 13.0581 15.3787 13.6207C15.9413 14.1833 16.7044 14.4994 17.5 14.4994C18.2957 14.4994 19.0587 14.1833 19.6213 13.6207C20.1839 13.0581 20.5 12.295 20.5 11.4994V10.4994C20.4999 8.24241 19.7362 6.05186 18.3333 4.28391C16.9303 2.51597 14.9706 1.27461 12.7727 0.761677C10.5747 0.24875 8.26794 0.494422 6.22736 1.45875C4.18677 2.42307 2.53241 4.04934 1.53327 6.0731C0.534128 8.09687 0.248976 10.3991 0.724178 12.6055C1.19938 14.8119 2.40699 16.7926 4.15064 18.2256C5.89429 19.6587 8.07144 20.4597 10.3281 20.4985C12.5847 20.5373 14.7881 19.8116 16.58 18.4394M14.5 10.4994C14.5 12.7085 12.7092 14.4994 10.5 14.4994C8.29087 14.4994 6.50001 12.7085 6.50001 10.4994C6.50001 8.29024 8.29087 6.49938 10.5 6.49938C12.7092 6.49938 14.5 8.29024 14.5 10.4994Z"  stroke-linecap="round" stroke-linejoin="round"/>
</svg>
