<svg xmlns="http://www.w3.org/2000/svg" width="24" height="24" viewBox="0 0 21 19" fill="none" stroke="currentColor" stroke-width="2" stroke-linecap="round" stroke-linejoin="round">
<path d="M6 8.5H3.1C2.53995 8.5 2.25992 8.5 2.04601 8.60899C1.85785 8.70487 1.70487 8.85785 1.60899 9.04601C1.5 9.25992 1.5 9.53995 1.5 10.1V18.5M15 8.5H17.9C18.4601 8.5 18.7401 8.5 18.954 8.60899C19.1422 8.70487 19.2951 8.85785 19.391 9.04601C19.5 9.25992 19.5 9.53995 19.5 10.1V18.5M15 18.5V3.7C15 2.5799 15 2.01984 14.782 1.59202C14.5903 1.2157 14.2843 0.909734 13.908 0.717987C13.4802 0.5 12.9201 0.5 11.8 0.5H9.2C8.07989 0.5 7.51984 0.5 7.09202 0.717987C6.71569 0.909734 6.40973 1.2157 6.21799 1.59202C6 2.01984 6 2.5799 6 3.7V18.5M20.5 18.5H0.5M9.5 4.5H11.5M9.5 8.5H11.5M9.5 12.5H11.5"  stroke-linecap="round" stroke-linejoin="round"/>
</svg>
