<svg xmlns="http://www.w3.org/2000/svg" width="24" height="24" viewBox="0 0 21 19" fill="none" stroke="currentColor" stroke-width="2" stroke-linecap="round" stroke-linejoin="round">
<path d="M11.5 8.5H16.3C17.4201 8.5 17.9802 8.5 18.408 8.71799C18.7843 8.90973 19.0903 9.2157 19.282 9.59202C19.5 10.0198 19.5 10.5799 19.5 11.7V18.5M11.5 18.5V3.7C11.5 2.5799 11.5 2.01984 11.282 1.59202C11.0903 1.2157 10.7843 0.909734 10.408 0.717987C9.98016 0.5 9.4201 0.5 8.3 0.5H4.7C3.5799 0.5 3.01984 0.5 2.59202 0.717987C2.21569 0.909734 1.90973 1.2157 1.71799 1.59202C1.5 2.01984 1.5 2.5799 1.5 3.7V18.5M20.5 18.5H0.5M5 4.5H8M5 8.5H8M5 12.5H8"  stroke-linecap="round" stroke-linejoin="round"/>
</svg>
