<svg xmlns="http://www.w3.org/2000/svg" width="24" height="24" viewBox="0 0 19 19" fill="none" stroke="currentColor" stroke-width="2" stroke-linecap="round" stroke-linejoin="round">
<path d="M12.5 18.5V13.1C12.5 12.5399 12.5 12.2599 12.391 12.046C12.2951 11.8578 12.1422 11.7049 11.954 11.609C11.7401 11.5 11.4601 11.5 10.9 11.5H8.1C7.53995 11.5 7.25992 11.5 7.04601 11.609C6.85785 11.7049 6.70487 11.8578 6.60899 12.046C6.5 12.2599 6.5 12.5399 6.5 13.1V18.5M16.5 18.5V3.7C16.5 2.5799 16.5 2.01984 16.282 1.59202C16.0903 1.2157 15.7843 0.909734 15.408 0.717987C14.9802 0.5 14.4201 0.5 13.3 0.5H5.7C4.57989 0.5 4.01984 0.5 3.59202 0.717987C3.21569 0.909734 2.90973 1.2157 2.71799 1.59202C2.5 2.01984 2.5 2.5799 2.5 3.7V18.5M18.5 18.5H0.5M7 5.5H7.01M12 5.5H12.01M7.5 5.5C7.5 5.77614 7.27614 6 7 6C6.72386 6 6.5 5.77614 6.5 5.5C6.5 5.22386 6.72386 5 7 5C7.27614 5 7.5 5.22386 7.5 5.5ZM12.5 5.5C12.5 5.77614 12.2761 6 12 6C11.7239 6 11.5 5.77614 11.5 5.5C11.5 5.22386 11.7239 5 12 5C12.2761 5 12.5 5.22386 12.5 5.5Z"  stroke-linecap="round" stroke-linejoin="round"/>
</svg>
