<svg xmlns="http://www.w3.org/2000/svg" width="24" height="24" viewBox="0 0 21 19" fill="none" stroke="currentColor" stroke-width="2" stroke-linecap="round" stroke-linejoin="round">
<path d="M9.5 8.5H4.7C3.57989 8.5 3.01984 8.5 2.59202 8.71799C2.21569 8.90973 1.90973 9.2157 1.71799 9.59202C1.5 10.0198 1.5 10.5799 1.5 11.7V18.5M19.5 18.5V3.7C19.5 2.5799 19.5 2.01984 19.282 1.59202C19.0903 1.2157 18.7843 0.909734 18.408 0.717987C17.9802 0.5 17.4201 0.5 16.3 0.5H12.7C11.5799 0.5 11.0198 0.5 10.592 0.717987C10.2157 0.909734 9.90973 1.2157 9.71799 1.59202C9.5 2.01984 9.5 2.5799 9.5 3.7V18.5M20.5 18.5H0.5M13 4.5H16M13 8.5H16M13 12.5H16"  stroke-linecap="round" stroke-linejoin="round"/>
</svg>
