<svg xmlns="http://www.w3.org/2000/svg" width="24" height="24" viewBox="0 0 21 19" fill="none" stroke="currentColor" stroke-width="2" stroke-linecap="round" stroke-linejoin="round">
<path d="M6 4.5H8.75M6 8.5H8.75M6 12.5H8.75M12.25 4.5H15M12.25 8.5H15M12.25 12.5H15M18.5 18.5V3.7C18.5 2.5799 18.5 2.01984 18.282 1.59202C18.0903 1.2157 17.7843 0.909734 17.408 0.717987C16.9802 0.5 16.4201 0.5 15.3 0.5H5.7C4.57989 0.5 4.01984 0.5 3.59202 0.717987C3.21569 0.909734 2.90973 1.2157 2.71799 1.59202C2.5 2.01984 2.5 2.5799 2.5 3.7V18.5M20.5 18.5H0.5"  stroke-linecap="round" stroke-linejoin="round"/>
</svg>
