<svg xmlns="http://www.w3.org/2000/svg" width="24" height="24" viewBox="0 0 19 19" fill="none" stroke="currentColor" stroke-width="2" stroke-linecap="round" stroke-linejoin="round">
<path d="M12.5 18.5V13.1C12.5 12.5399 12.5 12.2599 12.391 12.046C12.2951 11.8578 12.1422 11.7049 11.954 11.609C11.7401 11.5 11.4601 11.5 10.9 11.5H8.1C7.53995 11.5 7.25992 11.5 7.04601 11.609C6.85785 11.7049 6.70487 11.8578 6.60899 12.046C6.5 12.2599 6.5 12.5399 6.5 13.1V18.5M0.5 4.5C0.5 6.15685 1.84315 7.5 3.5 7.5C5.15685 7.5 6.5 6.15685 6.5 4.5C6.5 6.15685 7.84315 7.5 9.5 7.5C11.1569 7.5 12.5 6.15685 12.5 4.5C12.5 6.15685 13.8431 7.5 15.5 7.5C17.1569 7.5 18.5 6.15685 18.5 4.5M3.7 18.5H15.3C16.4201 18.5 16.9802 18.5 17.408 18.282C17.7843 18.0903 18.0903 17.7843 18.282 17.408C18.5 16.9802 18.5 16.4201 18.5 15.3V3.7C18.5 2.5799 18.5 2.01984 18.282 1.59202C18.0903 1.2157 17.7843 0.909734 17.408 0.717987C16.9802 0.5 16.4201 0.5 15.3 0.5H3.7C2.5799 0.5 2.01984 0.5 1.59202 0.717987C1.2157 0.909734 0.909734 1.2157 0.717987 1.59202C0.5 2.01984 0.5 2.5799 0.5 3.7V15.3C0.5 16.4201 0.5 16.9802 0.717987 17.408C0.909734 17.7843 1.2157 18.0903 1.59202 18.282C2.01984 18.5 2.5799 18.5 3.7 18.5Z"  stroke-linecap="round" stroke-linejoin="round"/>
</svg>
