<svg xmlns="http://www.w3.org/2000/svg" width="24" height="24" viewBox="0 0 21 21" fill="none" stroke="currentColor" stroke-width="2" stroke-linecap="round" stroke-linejoin="round">
<path d="M7.5 10.5L9.5 12.5L14 8M16.4012 3.49851C16.6071 3.99653 17.0024 4.3924 17.5001 4.59907L19.2452 5.32198C19.7433 5.52828 20.139 5.92399 20.3453 6.42206C20.5516 6.92012 20.5516 7.47974 20.3453 7.97781L19.6229 9.7218C19.4165 10.2201 19.4162 10.7803 19.6236 11.2783L20.3447 13.0218C20.4469 13.2685 20.4996 13.5329 20.4996 13.7999C20.4997 14.067 20.4471 14.3314 20.3449 14.5781C20.2427 14.8249 20.0929 15.049 19.9041 15.2378C19.7152 15.4266 19.491 15.5764 19.2443 15.6785L17.5004 16.4009C17.0023 16.6068 16.6065 17.0021 16.3998 17.4998L15.6769 19.245C15.4706 19.7431 15.075 20.1388 14.5769 20.3451C14.0789 20.5514 13.5193 20.5514 13.0212 20.3451L11.2773 19.6227C10.7792 19.4169 10.2198 19.4173 9.72208 19.6239L7.97689 20.3458C7.47912 20.5516 6.92001 20.5514 6.42237 20.3453C5.92473 20.1391 5.52925 19.7439 5.32281 19.2464L4.59972 17.5006C4.3938 17.0026 3.99854 16.6067 3.50085 16.4L1.75566 15.6771C1.25783 15.4709 0.862256 15.0754 0.655882 14.5777C0.449508 14.0799 0.449228 13.5205 0.655104 13.0225L1.37746 11.2786C1.58325 10.7805 1.58283 10.2211 1.3763 9.72328L0.654972 7.97678C0.552703 7.7301 0.500043 7.46568 0.5 7.19863C0.499957 6.93159 0.552533 6.66715 0.654723 6.42043C0.756913 6.17372 0.906715 5.94955 1.09557 5.76075C1.28442 5.57195 1.50862 5.42222 1.75537 5.3201L3.4993 4.59772C3.99687 4.39197 4.39248 3.9972 4.5993 3.50006L5.32218 1.75481C5.52848 1.25674 5.92418 0.861034 6.42222 0.654729C6.92027 0.448424 7.47987 0.448424 7.97792 0.654729L9.72185 1.37712C10.2199 1.58291 10.7793 1.58249 11.2771 1.37595L13.023 0.655849C13.521 0.44966 14.0804 0.449702 14.5784 0.655967C15.0763 0.862231 15.472 1.25783 15.6783 1.75576L16.4014 3.50153L16.4012 3.49851Z"  stroke-linecap="round" stroke-linejoin="round"/>
</svg>
