<svg xmlns="http://www.w3.org/2000/svg" width="24" height="24" viewBox="0 0 21 21" fill="none" stroke="currentColor" stroke-width="2" stroke-linecap="round" stroke-linejoin="round">
<path d="M7.5 10.5L9.5 12.5L14 8M5.83377 2.3187C6.6376 2.25455 7.40071 1.93846 8.01447 1.41542C9.44672 0.19486 11.5533 0.19486 12.9855 1.41542C13.5993 1.93846 14.3624 2.25455 15.1662 2.3187C17.0421 2.46839 18.5316 3.95794 18.6813 5.83377C18.7455 6.6376 19.0615 7.40071 19.5846 8.01447C20.8051 9.44672 20.8051 11.5533 19.5846 12.9855C19.0615 13.5993 18.7455 14.3624 18.6813 15.1662C18.5316 17.0421 17.0421 18.5316 15.1662 18.6813C14.3624 18.7455 13.5993 19.0615 12.9855 19.5846C11.5533 20.8051 9.44672 20.8051 8.01447 19.5846C7.40071 19.0615 6.6376 18.7455 5.83377 18.6813C3.95794 18.5316 2.46839 17.0421 2.3187 15.1662C2.25455 14.3624 1.93846 13.5993 1.41542 12.9855C0.19486 11.5533 0.19486 9.44672 1.41542 8.01447C1.93846 7.40071 2.25455 6.6376 2.3187 5.83377C2.46839 3.95794 3.95794 2.46839 5.83377 2.3187Z"  stroke-linecap="round" stroke-linejoin="round"/>
</svg>
