<svg xmlns="http://www.w3.org/2000/svg" width="24" height="24" viewBox="0 0 21 21" fill="none" stroke="currentColor" stroke-width="2" stroke-linecap="round" stroke-linejoin="round">
<path d="M4.5 13.5L6.5 15.5L11 11M6.5 6.5V3.7C6.5 2.5799 6.5 2.01984 6.71799 1.59202C6.90973 1.2157 7.2157 0.909734 7.59202 0.717987C8.01984 0.5 8.5799 0.5 9.7 0.5H17.3C18.4201 0.5 18.9802 0.5 19.408 0.717987C19.7843 0.909734 20.0903 1.2157 20.282 1.59202C20.5 2.01984 20.5 2.5799 20.5 3.7V11.3C20.5 12.4201 20.5 12.9802 20.282 13.408C20.0903 13.7843 19.7843 14.0903 19.408 14.282C18.9802 14.5 18.4201 14.5 17.3 14.5H14.5M3.7 20.5H11.3C12.4201 20.5 12.9802 20.5 13.408 20.282C13.7843 20.0903 14.0903 19.7843 14.282 19.408C14.5 18.9802 14.5 18.4201 14.5 17.3V9.7C14.5 8.5799 14.5 8.01984 14.282 7.59202C14.0903 7.2157 13.7843 6.90973 13.408 6.71799C12.9802 6.5 12.4201 6.5 11.3 6.5H3.7C2.5799 6.5 2.01984 6.5 1.59202 6.71799C1.2157 6.90973 0.909734 7.2157 0.717987 7.59202C0.5 8.01984 0.5 8.5799 0.5 9.7V17.3C0.5 18.4201 0.5 18.9802 0.717987 19.408C0.909734 19.7843 1.2157 20.0903 1.59202 20.282C2.01984 20.5 2.5799 20.5 3.7 20.5Z"  stroke-linecap="round" stroke-linejoin="round"/>
</svg>
