<svg xmlns="http://www.w3.org/2000/svg" width="24" height="24" viewBox="0 0 21 18.6676" fill="none" stroke="currentColor" stroke-width="2" stroke-linecap="round" stroke-linejoin="round">
<path d="M7.50006 8.50093L9.50006 10.5009L14.0001 6.00093M10.4932 2.63674C8.49386 0.299329 5.1598 -0.329428 2.65475 1.81094C0.149702 3.95131 -0.202974 7.52991 1.76426 10.0613C3.25015 11.9734 7.47135 15.8119 9.44807 17.5758C9.81144 17.9001 9.99313 18.0622 10.2059 18.126C10.3906 18.1814 10.5958 18.1814 10.7805 18.126C10.9933 18.0622 11.175 17.9001 11.5384 17.5758C13.5151 15.8119 17.7363 11.9734 19.2222 10.0613C21.1894 7.52991 20.8798 3.9288 18.3317 1.81094C15.7836 -0.306914 12.4926 0.299329 10.4932 2.63674Z"  stroke-linecap="round" stroke-linejoin="round"/>
</svg>
