<svg xmlns="http://www.w3.org/2000/svg" width="24" height="24" viewBox="0 0 21 21" fill="none" stroke="currentColor" stroke-width="2" stroke-linecap="round" stroke-linejoin="round">
<path d="M7.5 10.5L9.5 12.5L14 8M7.7019 19.1009C8.02965 19.0575 8.36073 19.1464 8.62182 19.3475L9.82506 20.2708C10.2228 20.5764 10.7761 20.5764 11.1727 20.2708L12.4215 19.312C12.6548 19.1331 12.9492 19.0542 13.2403 19.0931L14.8024 19.2986C15.299 19.3642 15.7779 19.0875 15.9701 18.6242L16.5712 17.1709C16.6834 16.8987 16.8989 16.6832 17.1711 16.5709L18.6243 15.9698C19.0876 15.7787 19.3643 15.2988 19.2987 14.8021L19.101 13.2966C19.0576 12.9688 19.1465 12.6377 19.3476 12.3766L20.2709 11.1733C20.5764 10.7755 20.5764 10.2222 20.2709 9.82557L19.312 8.57672C19.1332 8.34339 19.0543 8.04896 19.0932 7.75785L19.2987 6.19568C19.3643 5.69902 19.0876 5.22015 18.6243 5.02793L17.1711 4.42684C16.8989 4.31462 16.6834 4.09907 16.5712 3.82685L15.9701 2.37356C15.779 1.91024 15.299 1.63358 14.8024 1.69913L13.2403 1.90468C12.9492 1.94468 12.6548 1.86579 12.4226 1.68802L11.1738 0.72916C10.7761 0.423613 10.2228 0.423613 9.82617 0.72916L8.57738 1.68802C8.34407 1.86579 8.04965 1.94468 7.75856 1.90691L6.19647 1.70136C5.69984 1.6358 5.221 1.91246 5.02879 2.37578L4.42884 3.82907C4.31552 4.10018 4.09998 4.31573 3.82889 4.42906L2.37568 5.02904C1.91238 5.22126 1.63574 5.70013 1.70129 6.19679L1.90683 7.75897C1.9446 8.05007 1.86572 8.3445 1.68796 8.57672L0.729148 9.82557C0.423617 10.2233 0.423617 10.7767 0.729148 11.1733L1.68796 12.4222C1.86683 12.6555 1.94571 12.9499 1.90683 13.241L1.70129 14.8032C1.63574 15.2999 1.91238 15.7787 2.37568 15.971L3.82889 16.5721C4.10109 16.6843 4.31663 16.8998 4.42884 17.172L5.0299 18.6253C5.221 19.0887 5.70096 19.3653 6.19758 19.2998L7.7019 19.1009Z"  stroke-linecap="round" stroke-linejoin="round"/>
</svg>
