<svg xmlns="http://www.w3.org/2000/svg" width="24" height="24" viewBox="0 0 21 21" fill="none" stroke="currentColor" stroke-width="2" stroke-linecap="round" stroke-linejoin="round">
<path d="M6.5 14.5V17.3C6.5 18.4201 6.5 18.9802 6.71799 19.408C6.90973 19.7843 7.2157 20.0903 7.59202 20.282C8.01984 20.5 8.5799 20.5 9.7 20.5H17.3C18.4201 20.5 18.9802 20.5 19.408 20.282C19.7843 20.0903 20.0903 19.7843 20.282 19.408C20.5 18.9802 20.5 18.4201 20.5 17.3V9.7C20.5 8.5799 20.5 8.01984 20.282 7.59202C20.0903 7.2157 19.7843 6.90973 19.408 6.71799C18.9802 6.5 18.4201 6.5 17.3 6.5H14.5M3.7 14.5H11.3C12.4201 14.5 12.9802 14.5 13.408 14.282C13.7843 14.0903 14.0903 13.7843 14.282 13.408C14.5 12.9802 14.5 12.4201 14.5 11.3V3.7C14.5 2.5799 14.5 2.01984 14.282 1.59202C14.0903 1.2157 13.7843 0.909734 13.408 0.717987C12.9802 0.5 12.4201 0.5 11.3 0.5H3.7C2.5799 0.5 2.01984 0.5 1.59202 0.717987C1.2157 0.909734 0.909734 1.2157 0.717987 1.59202C0.5 2.01984 0.5 2.5799 0.5 3.7V11.3C0.5 12.4201 0.5 12.9802 0.717987 13.408C0.909734 13.7843 1.2157 14.0903 1.59202 14.282C2.01984 14.5 2.5799 14.5 3.7 14.5Z"  stroke-linecap="round" stroke-linejoin="round"/>
</svg>
