<svg xmlns="http://www.w3.org/2000/svg" width="24" height="24" viewBox="0 0 21 21" fill="none" stroke="currentColor" stroke-width="2" stroke-linecap="round" stroke-linejoin="round">
<path d="M3.5 13.5C2.56812 13.5 2.10218 13.5 1.73463 13.3478C1.24458 13.1448 0.855229 12.7554 0.652241 12.2654C0.5 11.8978 0.5 11.4319 0.5 10.5V3.7C0.5 2.5799 0.5 2.01984 0.717987 1.59202C0.909734 1.2157 1.2157 0.909734 1.59202 0.717987C2.01984 0.5 2.5799 0.5 3.7 0.5H10.5C11.4319 0.5 11.8978 0.5 12.2654 0.652241C12.7554 0.855229 13.1448 1.24458 13.3478 1.73463C13.5 2.10218 13.5 2.56812 13.5 3.5M10.7 20.5H17.3C18.4201 20.5 18.9802 20.5 19.408 20.282C19.7843 20.0903 20.0903 19.7843 20.282 19.408C20.5 18.9802 20.5 18.4201 20.5 17.3V10.7C20.5 9.5799 20.5 9.01984 20.282 8.59202C20.0903 8.2157 19.7843 7.90973 19.408 7.71799C18.9802 7.5 18.4201 7.5 17.3 7.5H10.7C9.5799 7.5 9.01984 7.5 8.59202 7.71799C8.2157 7.90973 7.90973 8.2157 7.71799 8.59202C7.5 9.01984 7.5 9.5799 7.5 10.7V17.3C7.5 18.4201 7.5 18.9802 7.71799 19.408C7.90973 19.7843 8.2157 20.0903 8.59202 20.282C9.01984 20.5 9.5799 20.5 10.7 20.5Z"  stroke-linecap="round" stroke-linejoin="round"/>
</svg>
