<svg xmlns="http://www.w3.org/2000/svg" width="24" height="24" viewBox="0 0 19 19" fill="none" stroke="currentColor" stroke-width="2" stroke-linecap="round" stroke-linejoin="round">
<path d="M5 0.5H12.1C14.3402 0.5 15.4603 0.5 16.316 0.935974C17.0686 1.31947 17.6805 1.93139 18.064 2.68404C18.5 3.53969 18.5 4.65979 18.5 6.9V14M3.7 18.5H11.8C12.9201 18.5 13.4802 18.5 13.908 18.282C14.2843 18.0903 14.5903 17.7843 14.782 17.408C15 16.9802 15 16.4201 15 15.3V7.2C15 6.07989 15 5.51984 14.782 5.09202C14.5903 4.71569 14.2843 4.40973 13.908 4.21799C13.4802 4 12.9201 4 11.8 4H3.7C2.5799 4 2.01984 4 1.59202 4.21799C1.2157 4.40973 0.909734 4.71569 0.717987 5.09202C0.5 5.51984 0.5 6.07989 0.5 7.2V15.3C0.5 16.4201 0.5 16.9802 0.717987 17.408C0.909734 17.7843 1.2157 18.0903 1.59202 18.282C2.01984 18.5 2.5799 18.5 3.7 18.5Z"  stroke-linecap="round" stroke-linejoin="round"/>
</svg>
