<svg xmlns="http://www.w3.org/2000/svg" width="24" height="24" viewBox="0 0 17 17" fill="none" stroke="currentColor" stroke-width="2" stroke-linecap="round" stroke-linejoin="round">
<g>
<path d="M8.5 2.5C9.05228 2.5 9.5 2.05228 9.5 1.5C9.5 0.947715 9.05228 0.5 8.5 0.5C7.94772 0.5 7.5 0.947715 7.5 1.5C7.5 2.05228 7.94772 2.5 8.5 2.5Z"  stroke-linecap="round" stroke-linejoin="round"/>
<path d="M8.5 9.5C9.05228 9.5 9.5 9.05228 9.5 8.5C9.5 7.94772 9.05228 7.5 8.5 7.5C7.94772 7.5 7.5 7.94772 7.5 8.5C7.5 9.05228 7.94772 9.5 8.5 9.5Z"  stroke-linecap="round" stroke-linejoin="round"/>
<path d="M8.5 16.5C9.05228 16.5 9.5 16.0523 9.5 15.5C9.5 14.9477 9.05228 14.5 8.5 14.5C7.94772 14.5 7.5 14.9477 7.5 15.5C7.5 16.0523 7.94772 16.5 8.5 16.5Z"  stroke-linecap="round" stroke-linejoin="round"/>
<path d="M15.5 2.5C16.0523 2.5 16.5 2.05228 16.5 1.5C16.5 0.947715 16.0523 0.5 15.5 0.5C14.9477 0.5 14.5 0.947715 14.5 1.5C14.5 2.05228 14.9477 2.5 15.5 2.5Z"  stroke-linecap="round" stroke-linejoin="round"/>
<path d="M15.5 9.5C16.0523 9.5 16.5 9.05228 16.5 8.5C16.5 7.94772 16.0523 7.5 15.5 7.5C14.9477 7.5 14.5 7.94772 14.5 8.5C14.5 9.05228 14.9477 9.5 15.5 9.5Z"  stroke-linecap="round" stroke-linejoin="round"/>
<path d="M15.5 16.5C16.0523 16.5 16.5 16.0523 16.5 15.5C16.5 14.9477 16.0523 14.5 15.5 14.5C14.9477 14.5 14.5 14.9477 14.5 15.5C14.5 16.0523 14.9477 16.5 15.5 16.5Z"  stroke-linecap="round" stroke-linejoin="round"/>
<path d="M1.5 2.5C2.05228 2.5 2.5 2.05228 2.5 1.5C2.5 0.947715 2.05228 0.5 1.5 0.5C0.947715 0.5 0.5 0.947715 0.5 1.5C0.5 2.05228 0.947715 2.5 1.5 2.5Z"  stroke-linecap="round" stroke-linejoin="round"/>
<path d="M1.5 9.5C2.05228 9.5 2.5 9.05228 2.5 8.5C2.5 7.94772 2.05228 7.5 1.5 7.5C0.947715 7.5 0.5 7.94772 0.5 8.5C0.5 9.05228 0.947715 9.5 1.5 9.5Z"  stroke-linecap="round" stroke-linejoin="round"/>
<path d="M1.5 16.5C2.05228 16.5 2.5 16.0523 2.5 15.5C2.5 14.9477 2.05228 14.5 1.5 14.5C0.947715 14.5 0.5 14.9477 0.5 15.5C0.5 16.0523 0.947715 16.5 1.5 16.5Z"  stroke-linecap="round" stroke-linejoin="round"/>
</g>
</svg>
