<svg xmlns="http://www.w3.org/2000/svg" width="24" height="24" viewBox="0 0 17 3" fill="none" stroke="currentColor" stroke-width="2" stroke-linecap="round" stroke-linejoin="round">
<g>
<path d="M8.5 2.5C9.05228 2.5 9.5 2.05228 9.5 1.5C9.5 0.947715 9.05228 0.5 8.5 0.5C7.94772 0.5 7.5 0.947715 7.5 1.5C7.5 2.05228 7.94772 2.5 8.5 2.5Z"  stroke-linecap="round" stroke-linejoin="round"/>
<path d="M15.5 2.5C16.0523 2.5 16.5 2.05228 16.5 1.5C16.5 0.947715 16.0523 0.5 15.5 0.5C14.9477 0.5 14.5 0.947715 14.5 1.5C14.5 2.05228 14.9477 2.5 15.5 2.5Z"  stroke-linecap="round" stroke-linejoin="round"/>
<path d="M1.5 2.5C2.05228 2.5 2.5 2.05228 2.5 1.5C2.5 0.947715 2.05228 0.5 1.5 0.5C0.947715 0.5 0.5 0.947715 0.5 1.5C0.5 2.05228 0.947715 2.5 1.5 2.5Z"  stroke-linecap="round" stroke-linejoin="round"/>
</g>
</svg>
