<svg xmlns="http://www.w3.org/2000/svg" width="24" height="24" viewBox="0 0 20.3285 20.3284" fill="none" stroke="currentColor" stroke-width="2" stroke-linecap="round" stroke-linejoin="round">
<path d="M0.876044 16.4441C0.921987 16.0306 0.944959 15.8238 1.00752 15.6306C1.06302 15.4591 1.14144 15.296 1.24064 15.1455C1.35246 14.976 1.49955 14.8289 1.79373 14.5347L15 1.32843C16.1046 0.223857 17.8955 0.223859 19 1.32843C20.1046 2.433 20.1046 4.22386 19 5.32843L5.79373 18.5347C5.49955 18.8289 5.35246 18.976 5.18289 19.0878C5.03245 19.187 4.86929 19.2654 4.69785 19.3209C4.50461 19.3835 4.29786 19.4064 3.88437 19.4524L0.500003 19.8284L0.876044 16.4441Z"  stroke-linecap="round" stroke-linejoin="round"/>
</svg>
