<svg xmlns="http://www.w3.org/2000/svg" width="24" height="24" viewBox="0 0 19 18.1213" fill="none" stroke="currentColor" stroke-width="2" stroke-linecap="round" stroke-linejoin="round">
<path d="M9.5 17.6213H18.5M0.500021 17.6213H2.17456C2.66375 17.6213 2.90834 17.6213 3.13851 17.5661C3.34258 17.5171 3.53767 17.4363 3.71662 17.3266C3.91845 17.2029 4.0914 17.03 4.43731 16.6841L17 4.12132C17.8285 3.29289 17.8285 1.94975 17 1.12132C16.1716 0.292893 14.8285 0.292894 14 1.12132L1.43728 13.6841C1.09138 14.03 0.918426 14.2029 0.794742 14.4047C0.685084 14.5837 0.604275 14.7788 0.555282 14.9829C0.500021 15.213 0.500021 15.4576 0.500021 15.9468V17.6213Z"  stroke-linecap="round" stroke-linejoin="round"/>
</svg>
