<svg xmlns="http://www.w3.org/2000/svg" width="24" height="24" viewBox="0 0 20.3285 20.3284" fill="none" stroke="currentColor" stroke-width="2" stroke-linecap="round" stroke-linejoin="round">
<path d="M16 8.32843L12 4.32843M0.500003 19.8284L3.88437 19.4524C4.29786 19.4064 4.50461 19.3835 4.69785 19.3209C4.86929 19.2654 5.03245 19.187 5.18289 19.0878C5.35246 18.976 5.49955 18.8289 5.79373 18.5347L19 5.32843C20.1046 4.22386 20.1046 2.433 19 1.32843C17.8955 0.223859 16.1046 0.223857 15 1.32843L1.79373 14.5347C1.49955 14.8289 1.35246 14.976 1.24064 15.1455C1.14144 15.296 1.06302 15.4591 1.00752 15.6306C0.944959 15.8238 0.921987 16.0306 0.876044 16.4441L0.500003 19.8284Z"  stroke-linecap="round" stroke-linejoin="round"/>
</svg>
