<svg xmlns="http://www.w3.org/2000/svg" width="24" height="24" viewBox="0 0 21.1213 21.1213" fill="none" stroke="currentColor" stroke-width="2" stroke-linecap="round" stroke-linejoin="round">
<path d="M9.5 2.62132H5.3C3.61984 2.62132 2.77976 2.62132 2.13803 2.9483C1.57354 3.23592 1.1146 3.69486 0.826981 4.25935C0.5 4.90109 0.5 5.74116 0.5 7.42132V15.8213C0.5 17.5015 0.5 18.3416 0.826981 18.9833C1.1146 19.5478 1.57354 20.0067 2.13803 20.2943C2.77976 20.6213 3.61984 20.6213 5.3 20.6213H13.7C15.3802 20.6213 16.2202 20.6213 16.862 20.2943C17.4265 20.0067 17.8854 19.5478 18.173 18.9833C18.5 18.3416 18.5 17.5015 18.5 15.8213V11.6213M6.49997 14.6213H8.17452C8.6637 14.6213 8.90829 14.6213 9.13846 14.5661C9.34254 14.5171 9.53763 14.4363 9.71657 14.3266C9.9184 14.2029 10.0914 14.03 10.4373 13.6841L20 4.12132C20.8284 3.29289 20.8284 1.94975 20 1.12132C19.1716 0.292894 17.8284 0.292893 17 1.12132L7.43723 10.6841C7.09133 11.03 6.91838 11.2029 6.79469 11.4048C6.68504 11.5837 6.60423 11.7788 6.55523 11.9829C6.49997 12.213 6.49997 12.4576 6.49997 12.9468V14.6213Z"  stroke-linecap="round" stroke-linejoin="round"/>
</svg>
