<svg xmlns="http://www.w3.org/2000/svg" width="24" height="24" viewBox="0 0 20.6883 19" fill="none" stroke="currentColor" stroke-width="2" stroke-linecap="round" stroke-linejoin="round">
<path d="M9.08669 2.59232C9.49311 2.53223 9.91236 2.5 10.3442 2.5C15.4492 2.5 18.799 7.00484 19.9244 8.78682C20.0607 9.0025 20.1288 9.11034 20.1669 9.27667C20.1955 9.40159 20.1955 9.59866 20.1668 9.72358C20.1287 9.8899 20.0601 9.99846 19.9229 10.2156C19.6231 10.6901 19.1659 11.3571 18.5602 12.0805M5.06807 4.21504C2.906 5.6817 1.4382 7.71938 0.764855 8.78528C0.628035 9.00187 0.559625 9.11016 0.521489 9.27648C0.492847 9.4014 0.492836 9.59844 0.521463 9.72336C0.55958 9.88968 0.627681 9.99751 0.763884 10.2132C1.88929 11.9952 5.23916 16.5 10.3442 16.5C12.4026 16.5 14.1756 15.7676 15.6326 14.7766M1.34417 0.5L19.3442 18.5M8.22285 7.37868C7.67995 7.92157 7.34417 8.67157 7.34417 9.5C7.34417 11.1569 8.68731 12.5 10.3442 12.5C11.1726 12.5 11.9226 12.1642 12.4655 11.6213"  stroke-linecap="round" stroke-linejoin="round"/>
</svg>
