<svg xmlns="http://www.w3.org/2000/svg" width="24" height="24" viewBox="0 0 20.6883 15" fill="none" stroke="currentColor" stroke-width="2" stroke-linecap="round" stroke-linejoin="round">
<g>
<path d="M0.763873 8.21318C0.627686 7.99754 0.559592 7.88972 0.521474 7.72342C0.492842 7.5985 0.492842 7.4015 0.521474 7.27658C0.559592 7.11028 0.627686 7.00246 0.763872 6.78682C1.88928 5.00484 5.23915 0.5 10.3442 0.5C15.4492 0.5 18.799 5.00484 19.9244 6.78682C20.0606 7.00246 20.1287 7.11028 20.1668 7.27658C20.1955 7.4015 20.1955 7.5985 20.1668 7.72342C20.1287 7.88972 20.0606 7.99754 19.9244 8.21318C18.799 9.99516 15.4492 14.5 10.3442 14.5C5.23915 14.5 1.88928 9.99516 0.763873 8.21318Z"  stroke-linecap="round" stroke-linejoin="round"/>
<path d="M10.3442 10.5C12.001 10.5 13.3442 9.15685 13.3442 7.5C13.3442 5.84315 12.001 4.5 10.3442 4.5C8.6873 4.5 7.34415 5.84315 7.34415 7.5C7.34415 9.15685 8.6873 10.5 10.3442 10.5Z"  stroke-linecap="round" stroke-linejoin="round"/>
</g>
</svg>
