<svg xmlns="http://www.w3.org/2000/svg" width="24" height="24" viewBox="0 0 21.0001 18.7579" fill="none" stroke="currentColor" stroke-width="2" stroke-linecap="round" stroke-linejoin="round">
<path d="M0.500061 2.1C0.500061 1.53995 0.500061 1.25992 0.609055 1.04601C0.704928 0.857848 0.857909 0.704868 1.04607 0.608994C1.25998 0.500001 1.54001 0.500001 2.10006 0.500001H18.9001C19.4601 0.500001 19.7401 0.500001 19.9541 0.608994C20.1422 0.704868 20.2952 0.857848 20.3911 1.04601C20.5001 1.25992 20.5001 1.53995 20.5001 2.1V2.76939C20.5001 3.03819 20.5001 3.17259 20.4672 3.29756C20.4381 3.40831 20.3902 3.51323 20.3256 3.60776C20.2526 3.71443 20.1511 3.80245 19.948 3.9785L13.5522 9.5215C13.349 9.69755 13.2475 9.78557 13.1746 9.89224C13.1099 9.98677 13.062 10.0917 13.0329 10.2024C13.0001 10.3274 13.0001 10.4618 13.0001 10.7306V15.9584C13.0001 16.1539 13.0001 16.2517 12.9685 16.3363C12.9407 16.411 12.8953 16.4779 12.8363 16.5315C12.7695 16.5922 12.6787 16.6285 12.4972 16.7012L9.09717 18.0612C8.72963 18.2082 8.54586 18.2817 8.39833 18.251C8.26933 18.2242 8.15612 18.1476 8.08331 18.0377C8.00006 17.9122 8.00006 17.7142 8.00006 17.3184V10.7306C8.00006 10.4618 8.00006 10.3274 7.96722 10.2024C7.93811 10.0917 7.8902 9.98677 7.82557 9.89224C7.75264 9.78557 7.65108 9.69755 7.44795 9.5215L1.05217 3.9785C0.849046 3.80245 0.747482 3.71443 0.674553 3.60776C0.609926 3.51323 0.562014 3.40831 0.532907 3.29756C0.500061 3.17259 0.500061 3.03819 0.500061 2.76939V2.1Z"  stroke-linecap="round" stroke-linejoin="round"/>
</svg>
