<svg xmlns="http://www.w3.org/2000/svg" width="24" height="24" viewBox="0 0 20.5268 18.7579" fill="none" stroke="currentColor" stroke-width="2" stroke-linecap="round" stroke-linejoin="round">
<path d="M1.64957 3.16687C0.893225 2.32155 0.515055 1.89889 0.50079 1.53968C0.488398 1.22764 0.622494 0.927721 0.863304 0.728887C1.14051 0.5 1.70766 0.5 2.84195 0.5H17.6849C18.8192 0.5 19.3863 0.5 19.6635 0.728887C19.9043 0.927721 20.0384 1.22764 20.026 1.53968C20.0118 1.89889 19.6336 2.32155 18.8773 3.16687L13.171 9.54443C13.0203 9.71294 12.9449 9.79719 12.8911 9.89308C12.8435 9.97812 12.8085 10.0697 12.7873 10.1648C12.7634 10.2721 12.7634 10.3852 12.7634 10.6113V15.9584C12.7634 16.1539 12.7634 16.2517 12.7319 16.3363C12.704 16.411 12.6587 16.4779 12.5997 16.5315C12.5329 16.5922 12.4421 16.6285 12.2605 16.7012L8.86053 18.0612C8.49299 18.2082 8.30922 18.2817 8.16169 18.251C8.03268 18.2242 7.91947 18.1476 7.84667 18.0377C7.76342 17.9122 7.76342 17.7142 7.76342 17.3184V10.6113C7.76342 10.3852 7.76342 10.2721 7.73954 10.1648C7.71836 10.0697 7.68338 9.97812 7.63571 9.89308C7.58196 9.79719 7.50657 9.71294 7.3558 9.54443L1.64957 3.16687Z"  stroke-linecap="round" stroke-linejoin="round"/>
</svg>
