<svg xmlns="http://www.w3.org/2000/svg" width="24" height="24" viewBox="0 0 21 21" fill="none" stroke="currentColor" stroke-width="2" stroke-linecap="round" stroke-linejoin="round">
<path d="M10.5 6.5C8.29086 6.5 6.5 8.29086 6.5 10.5C6.5 12.7091 8.29086 14.5 10.5 14.5C12.7091 14.5 14.5 12.7091 14.5 10.5C14.5 8.29086 12.7091 6.5 10.5 6.5ZM10.5 6.5H19.67M2.45 4.56L7.04 12.5M9.38 20.44L13.96 12.5M20.5 10.5C20.5 16.0228 16.0228 20.5 10.5 20.5C4.97715 20.5 0.5 16.0228 0.5 10.5C0.5 4.97715 4.97715 0.5 10.5 0.5C16.0228 0.5 20.5 4.97715 20.5 10.5Z"  stroke-linecap="round" stroke-linejoin="round"/>
</svg>
