<svg xmlns="http://www.w3.org/2000/svg" width="24" height="24" viewBox="0 0 20.9848 20.9756" fill="none" stroke="currentColor" stroke-width="2" stroke-linecap="round" stroke-linejoin="round">
<path d="M14.0455 8.42687C14.4194 7.76247 14.7312 7.16296 14.9235 6.70665C15.8573 4.49091 14.934 1.94221 12.6769 0.902565C10.4198 -0.137079 8.15337 0.940938 7.15868 3.02237C5.25653 1.71714 2.71915 1.90883 1.31985 3.94568C-0.0794404 5.98252 0.359721 8.64347 2.27626 10.0955C3.14607 10.7545 4.86633 11.7256 6.48592 12.5899M14.7972 10.2514C14.3751 7.98344 12.4453 6.32478 10.0156 6.7756C7.58589 7.22641 6.01484 9.41852 6.34331 11.8004C6.60722 13.7141 8.06389 18.2042 8.62637 19.8954C8.70313 20.1262 8.74151 20.2416 8.81749 20.3221C8.88369 20.3922 8.9717 20.443 9.06551 20.4653C9.17319 20.4908 9.29231 20.4664 9.53056 20.4175C11.2765 20.059 15.8933 19.0755 17.6826 18.3472C19.9096 17.4407 21.0589 14.9856 20.1981 12.6544C19.3372 10.3233 16.9723 9.48295 14.7972 10.2514Z"  stroke-linecap="round" stroke-linejoin="round"/>
</svg>
