<svg xmlns="http://www.w3.org/2000/svg" width="24" height="24" viewBox="0 0 21 20.9285" fill="none" stroke="currentColor" stroke-width="2" stroke-linecap="round" stroke-linejoin="round">
<path d="M4.5 18.5156H7.11029C7.45063 18.5156 7.78888 18.5561 8.11881 18.6371L10.8769 19.3073C11.4753 19.4531 12.0988 19.4673 12.7035 19.3499L15.753 18.7566C16.5585 18.5996 17.2996 18.2139 17.8803 17.649L20.0379 15.5502C20.654 14.9518 20.654 13.9809 20.0379 13.3815C19.4832 12.8419 18.6047 12.7811 17.9771 13.2388L15.4626 15.0733C15.1025 15.3365 14.6643 15.4783 14.2137 15.4783H11.7855L13.3311 15.4782C14.2022 15.4782 14.9079 14.7918 14.9079 13.9444V13.6376C14.9079 12.934 14.4156 12.3204 13.7141 12.1503L11.3286 11.5702C10.9404 11.476 10.5428 11.4285 10.1431 11.4285C9.17833 11.4285 7.43189 12.2273 7.43189 12.2273L4.5 13.4533M0.500001 13.0285L0.500001 18.8285C0.500001 19.3885 0.500001 19.6685 0.608994 19.8824C0.704868 20.0706 0.857848 20.2236 1.04601 20.3195C1.25992 20.4285 1.53995 20.4285 2.1 20.4285H2.9C3.46005 20.4285 3.74008 20.4285 3.95399 20.3195C4.14215 20.2236 4.29513 20.0706 4.39101 19.8824C4.5 19.6685 4.5 19.3885 4.5 18.8285V13.0285C4.5 12.4684 4.5 12.1884 4.39101 11.9745C4.29513 11.7863 4.14215 11.6333 3.95399 11.5375C3.74008 11.4285 3.46005 11.4285 2.9 11.4285H2.1C1.53995 11.4285 1.25992 11.4285 1.04601 11.5375C0.857848 11.6333 0.704868 11.7863 0.608994 11.9745C0.500001 12.1884 0.500001 12.4684 0.500001 13.0285ZM15.6914 2.02071C15.0946 0.771856 13.7186 0.110243 12.3804 0.748831C11.0423 1.38742 10.4722 2.90184 11.0325 4.23128C11.3787 5.05292 12.3707 6.64846 13.0781 7.74749C13.3394 8.15357 13.4701 8.35661 13.661 8.47539C13.8247 8.57727 14.0297 8.63218 14.2224 8.62581C14.4471 8.61838 14.6618 8.50788 15.0911 8.28689C16.2532 7.68877 17.9101 6.80301 18.6208 6.26458C19.7707 5.39338 20.0556 3.79203 19.1947 2.5747C18.3338 1.35736 16.8327 1.23758 15.6914 2.02071Z"  stroke-linecap="round" stroke-linejoin="round"/>
</svg>
