<svg xmlns="http://www.w3.org/2000/svg" width="24" height="24" viewBox="0 0 21.0001 21.0001" fill="none" stroke="currentColor" stroke-width="2" stroke-linecap="round" stroke-linejoin="round">
<g>
<path d="M5.89142 0.96868C6.06437 0.795728 6.15085 0.709252 6.25177 0.647411C6.34124 0.592582 6.43878 0.552178 6.54082 0.527681C6.65591 0.500051 6.7782 0.500051 7.02279 0.500051H13.9773C14.2219 0.500051 14.3442 0.500051 14.4593 0.527681C14.5613 0.552178 14.6589 0.592582 14.7483 0.647411C14.8493 0.709252 14.9357 0.795728 15.1087 0.96868L20.0314 5.89142C20.2044 6.06437 20.2908 6.15085 20.3527 6.25177C20.4075 6.34124 20.4479 6.43878 20.4724 6.54082C20.5001 6.65591 20.5001 6.7782 20.5001 7.02279V13.9773C20.5001 14.2219 20.5001 14.3442 20.4724 14.4593C20.4479 14.5613 20.4075 14.6589 20.3527 14.7483C20.2908 14.8493 20.2044 14.9357 20.0314 15.1087L15.1087 20.0314C14.9357 20.2044 14.8493 20.2908 14.7483 20.3527C14.6589 20.4075 14.5613 20.4479 14.4593 20.4724C14.3442 20.5001 14.2219 20.5001 13.9773 20.5001H7.02279C6.7782 20.5001 6.65591 20.5001 6.54082 20.4724C6.43878 20.4479 6.34124 20.4075 6.25177 20.3527C6.15085 20.2908 6.06437 20.2044 5.89142 20.0314L0.96868 15.1087C0.795728 14.9357 0.709252 14.8493 0.647411 14.7483C0.592582 14.6589 0.552178 14.5613 0.527681 14.4593C0.500051 14.3442 0.500051 14.2219 0.500051 13.9773V7.02279C0.500051 6.7782 0.500051 6.65591 0.527681 6.54082C0.552178 6.43878 0.592582 6.34124 0.647411 6.25177C0.709252 6.15085 0.795728 6.06437 0.96868 5.89142L5.89142 0.96868Z"  stroke-linecap="round" stroke-linejoin="round"/>
<path fill-rule="evenodd" clip-rule="evenodd" d="M10.4966 7.56796C9.49695 6.39925 7.82992 6.08487 6.5774 7.15506C5.32487 8.22524 5.14853 10.0145 6.13215 11.2803C6.76216 12.0909 8.37564 13.5943 9.45429 14.5704C9.81274 14.8948 9.99196 15.057 10.2066 15.122C10.3912 15.1779 10.6021 15.1779 10.7866 15.122C11.0013 15.057 11.1805 14.8948 11.539 14.5704C12.6176 13.5943 14.2311 12.0909 14.8611 11.2803C15.8447 10.0145 15.6899 8.21399 14.4159 7.15506C13.1418 6.09613 11.4963 6.39925 10.4966 7.56796Z"  stroke-linecap="round" stroke-linejoin="round"/>
</g>
</svg>
