<svg xmlns="http://www.w3.org/2000/svg" width="24" height="24" viewBox="0 0 19 19" fill="none" stroke="currentColor" stroke-width="2" stroke-linecap="round" stroke-linejoin="round">
<g>
<path d="M0.5 5.3C0.5 3.61984 0.5 2.77976 0.826981 2.13803C1.1146 1.57354 1.57354 1.1146 2.13803 0.826981C2.77976 0.5 3.61984 0.5 5.3 0.5H13.7C15.3802 0.5 16.2202 0.5 16.862 0.826981C17.4265 1.1146 17.8854 1.57354 18.173 2.13803C18.5 2.77976 18.5 3.61984 18.5 5.3V13.7C18.5 15.3802 18.5 16.2202 18.173 16.862C17.8854 17.4265 17.4265 17.8854 16.862 18.173C16.2202 18.5 15.3802 18.5 13.7 18.5H5.3C3.61984 18.5 2.77976 18.5 2.13803 18.173C1.57354 17.8854 1.1146 17.4265 0.826981 16.862C0.5 16.2202 0.5 15.3802 0.5 13.7V5.3Z"  stroke-linecap="round" stroke-linejoin="round"/>
<path fill-rule="evenodd" clip-rule="evenodd" d="M9.49658 6.56791C8.4969 5.3992 6.82987 5.08482 5.57735 6.15501C4.32482 7.22519 4.14848 9.01449 5.1321 10.2802C5.76211 11.0909 7.37558 12.5942 8.45424 13.5704C8.81269 13.8947 8.99191 14.0569 9.20659 14.122C9.39113 14.1779 9.60202 14.1779 9.78657 14.122C10.0012 14.0569 10.1805 13.8947 10.5389 13.5704C11.6176 12.5942 13.231 11.0909 13.8611 10.2802C14.8447 9.01449 14.6899 7.21393 13.4158 6.15501C12.1417 5.09608 10.4963 5.3992 9.49658 6.56791Z"  stroke-linecap="round" stroke-linejoin="round"/>
</g>
</svg>
