<svg xmlns="http://www.w3.org/2000/svg" width="24" height="24" viewBox="0 0 21 21" fill="none" stroke="currentColor" stroke-width="2" stroke-linecap="round" stroke-linejoin="round">
<g>
<path d="M10.5 20.5C16.0228 20.5 20.5 16.0228 20.5 10.5C20.5 4.97715 16.0228 0.5 10.5 0.5C4.97715 0.5 0.5 4.97715 0.5 10.5C0.5 16.0228 4.97715 20.5 10.5 20.5Z"  stroke-linecap="round" stroke-linejoin="round"/>
<path fill-rule="evenodd" clip-rule="evenodd" d="M10.4966 7.56791C9.4969 6.3992 7.82987 6.08482 6.57735 7.15501C5.32482 8.22519 5.14848 10.0145 6.1321 11.2802C6.76211 12.0909 8.37558 13.5942 9.45424 14.5704C9.81269 14.8947 9.99191 15.0569 10.2066 15.122C10.3911 15.1779 10.602 15.1779 10.7866 15.122C11.0012 15.0569 11.1805 14.8947 11.5389 14.5704C12.6176 13.5942 14.231 12.0909 14.8611 11.2802C15.8447 10.0145 15.6899 8.21393 14.4158 7.15501C13.1417 6.09608 11.4963 6.3992 10.4966 7.56791Z"  stroke-linecap="round" stroke-linejoin="round"/>
</g>
</svg>
