<svg xmlns="http://www.w3.org/2000/svg" width="24" height="24" viewBox="0 0 19.0002 20.7121" fill="none" stroke="currentColor" stroke-width="2" stroke-linecap="round" stroke-linejoin="round">
<g>
<path d="M8.72307 0.787724C9.00667 0.630166 9.14848 0.551387 9.29865 0.520501C9.43156 0.493166 9.56864 0.493166 9.70155 0.520501C9.85172 0.551387 9.99352 0.630166 10.2771 0.787724L17.6771 4.89883C17.9767 5.06524 18.1264 5.14844 18.2355 5.26678C18.3319 5.37146 18.405 5.49555 18.4496 5.63072C18.5001 5.78352 18.5001 5.95484 18.5001 6.29749V14.4146C18.5001 14.7572 18.5001 14.9286 18.4496 15.0814C18.405 15.2165 18.3319 15.3406 18.2355 15.4453C18.1264 15.5636 17.9767 15.6468 17.6771 15.8132L10.2771 19.9244C9.99352 20.0819 9.85172 20.1607 9.70155 20.1916C9.56864 20.2189 9.43156 20.2189 9.29865 20.1916C9.14848 20.1607 9.00667 20.0819 8.72307 19.9244L1.32307 15.8132C1.02355 15.6468 0.873784 15.5636 0.764732 15.4453C0.668256 15.3406 0.595246 15.2165 0.550583 15.0814C0.500098 14.9286 0.500098 14.7572 0.500098 14.4146V6.29749C0.500098 5.95484 0.500098 5.78352 0.550583 5.63072C0.595246 5.49555 0.668256 5.37146 0.764732 5.26678C0.873784 5.14844 1.02355 5.06524 1.32307 4.89883L8.72307 0.787724Z"  stroke-linecap="round" stroke-linejoin="round"/>
<path fill-rule="evenodd" clip-rule="evenodd" d="M9.49667 7.42395C8.497 6.25524 6.82997 5.94086 5.57745 7.01105C4.32492 8.08123 4.14858 9.87053 5.1322 11.1362C5.76221 11.9469 7.37568 13.4503 8.45433 14.4264C8.81278 14.7508 8.99201 14.913 9.20668 14.978C9.39123 15.0339 9.60212 15.0339 9.78666 14.978C10.0013 14.913 10.1806 14.7508 10.539 14.4264C11.6177 13.4503 13.2311 11.9469 13.8611 11.1362C14.8448 9.87053 14.69 8.06998 13.4159 7.01105C12.1418 5.95212 10.4964 6.25524 9.49667 7.42395Z"  stroke-linecap="round" stroke-linejoin="round"/>
</g>
</svg>
