<svg xmlns="http://www.w3.org/2000/svg" width="24" height="24" viewBox="0 0 21 21" fill="none" stroke="currentColor" stroke-width="2" stroke-linecap="round" stroke-linejoin="round">
<path d="M7.59 7.5C7.8251 6.83167 8.28915 6.26811 8.89995 5.90913C9.51076 5.55016 10.2289 5.41894 10.9272 5.53871C11.6255 5.65849 12.2588 6.02152 12.7151 6.56353C13.1713 7.10553 13.4211 7.79152 13.42 8.5C13.42 10.5 10.42 11.5 10.42 11.5M10.5 15.5H10.51M20.5 10.5C20.5 16.0228 16.0228 20.5 10.5 20.5C4.97715 20.5 0.5 16.0228 0.5 10.5C0.5 4.97715 4.97715 0.5 10.5 0.5C16.0228 0.5 20.5 4.97715 20.5 10.5Z"  stroke-linecap="round" stroke-linejoin="round"/>
</svg>
