<svg xmlns="http://www.w3.org/2000/svg" width="24" height="24" viewBox="0 0 19.0001 19.7331" fill="none" stroke="currentColor" stroke-width="2" stroke-linecap="round" stroke-linejoin="round">
<path d="M10.4823 0.997153C10.131 0.7239 9.95535 0.587274 9.76138 0.534755C9.59023 0.488415 9.40983 0.488415 9.23868 0.534755C9.04471 0.587274 8.86905 0.7239 8.51772 0.997153L1.73542 6.27228C1.28205 6.6249 1.05537 6.80121 0.892056 7.02201C0.747395 7.2176 0.639631 7.43794 0.574057 7.67221C0.500029 7.93667 0.500029 8.22385 0.500029 8.79821V16.0331C0.500029 17.1532 0.500029 17.7133 0.718016 18.1411C0.909763 18.5174 1.21572 18.8234 1.59205 19.0152C2.01987 19.2331 2.57992 19.2331 3.70003 19.2331H5.70003C5.98006 19.2331 6.12007 19.2331 6.22702 19.1786C6.32111 19.1307 6.3976 19.0542 6.44553 18.9601C6.50003 18.8532 6.50003 18.7132 6.50003 18.4331V11.8331C6.50003 11.2731 6.50003 10.9931 6.60902 10.7791C6.7049 10.591 6.85788 10.438 7.04604 10.3421C7.25995 10.2331 7.53998 10.2331 8.10003 10.2331H10.9C11.4601 10.2331 11.7401 10.2331 11.954 10.3421C12.1422 10.438 12.2952 10.591 12.391 10.7791C12.5 10.9931 12.5 11.2731 12.5 11.8331V18.4331C12.5 18.7132 12.5 18.8532 12.5545 18.9601C12.6025 19.0542 12.679 19.1307 12.773 19.1786C12.88 19.2331 13.02 19.2331 13.3 19.2331H15.3C16.4201 19.2331 16.9802 19.2331 17.408 19.0152C17.7843 18.8234 18.0903 18.5174 18.282 18.1411C18.5 17.7133 18.5 17.1532 18.5 16.0331V8.79821C18.5 8.22385 18.5 7.93667 18.426 7.67221C18.3604 7.43794 18.2527 7.2176 18.108 7.02201C17.9447 6.80121 17.718 6.6249 17.2646 6.27228L10.4823 0.997153Z"  stroke-linecap="round" stroke-linejoin="round"/>
</svg>
