<svg xmlns="http://www.w3.org/2000/svg" width="24" height="24" viewBox="0 0 21.0001 19.75" fill="none" stroke="currentColor" stroke-width="2" stroke-linecap="round" stroke-linejoin="round">
<path d="M7.50003 19.25V11.85C7.50003 11.2899 7.50003 11.0099 7.60903 10.796C7.7049 10.6078 7.85788 10.4549 8.04604 10.359C8.25995 10.25 8.53998 10.25 9.10003 10.25H11.9C12.4601 10.25 12.7401 10.25 12.954 10.359C13.1422 10.4549 13.2952 10.6078 13.391 10.796C13.5 11.0099 13.5 11.2899 13.5 11.85V19.25M0.500029 7.75L9.54003 0.97C9.88429 0.711806 10.0564 0.582709 10.2455 0.532945C10.4123 0.489018 10.5877 0.489018 10.7546 0.532945C10.9436 0.582709 11.1158 0.711806 11.46 0.97L20.5 7.75M2.50003 6.25V16.05C2.50003 17.1701 2.50003 17.7302 2.71802 18.158C2.90977 18.5343 3.21573 18.8403 3.59205 19.032C4.01988 19.25 4.57993 19.25 5.70003 19.25H15.3C16.4201 19.25 16.9802 19.25 17.408 19.032C17.7843 18.8403 18.0903 18.5343 18.282 18.158C18.5 17.7302 18.5 17.1701 18.5 16.05V6.25L12.42 1.69C11.7315 1.17361 11.3873 0.915418 11.0092 0.81589C10.6754 0.728037 10.3246 0.728037 9.9909 0.81589C9.61281 0.915418 9.26855 1.17361 8.58003 1.69L2.50003 6.25Z"  stroke-linecap="round" stroke-linejoin="round"/>
</svg>
