<svg xmlns="http://www.w3.org/2000/svg" width="24" height="24" viewBox="0 0 19.0001 19.7331" fill="none" stroke="currentColor" stroke-width="2" stroke-linecap="round" stroke-linejoin="round">
<g>
<path d="M9.50003 14.2331C11.1569 14.2331 12.5 12.89 12.5 11.2331C12.5 9.57628 11.1569 8.23314 9.50003 8.23314C7.84318 8.23314 6.50003 9.57628 6.50003 11.2331C6.50003 12.89 7.84318 14.2331 9.50003 14.2331Z"  stroke-linecap="round" stroke-linejoin="round"/>
<path d="M0.500029 8.79821C0.500029 8.22385 0.500029 7.93667 0.574057 7.67221C0.639631 7.43794 0.747395 7.2176 0.892056 7.02201C1.05537 6.80121 1.28205 6.6249 1.73542 6.27228L8.51772 0.997153C8.86905 0.7239 9.04471 0.587274 9.23868 0.534755C9.40983 0.488415 9.59023 0.488415 9.76138 0.534755C9.95535 0.587274 10.131 0.7239 10.4823 0.997153L17.2646 6.27228C17.718 6.6249 17.9447 6.80121 18.108 7.02201C18.2527 7.2176 18.3604 7.43794 18.426 7.67221C18.5 7.93667 18.5 8.22385 18.5 8.79821V16.0331C18.5 17.1532 18.5 17.7133 18.282 18.1411C18.0903 18.5174 17.7843 18.8234 17.408 19.0152C16.9802 19.2331 16.4201 19.2331 15.3 19.2331H3.70003C2.57992 19.2331 2.01987 19.2331 1.59205 19.0152C1.21572 18.8234 0.909763 18.5174 0.718016 18.1411C0.500029 17.7133 0.500029 17.1532 0.500029 16.0331V8.79821Z"  stroke-linecap="round" stroke-linejoin="round"/>
</g>
</svg>
