<svg xmlns="http://www.w3.org/2000/svg" width="24" height="24" viewBox="0 0 19.0002 20.7121" fill="none" stroke="currentColor" stroke-width="2" stroke-linecap="round" stroke-linejoin="round">
<path d="M9.5001 14.356V10.356M9.5001 6.35604H9.5101M0.500098 6.29749V14.4146C0.500098 14.7572 0.500098 14.9286 0.550583 15.0814C0.595246 15.2165 0.668256 15.3406 0.764732 15.4453C0.873784 15.5636 1.02355 15.6468 1.32307 15.8132L8.72307 19.9244C9.00667 20.0819 9.14848 20.1607 9.29865 20.1916C9.43156 20.2189 9.56864 20.2189 9.70155 20.1916C9.85172 20.1607 9.99352 20.0819 10.2771 19.9244L17.6771 15.8132C17.9767 15.6468 18.1264 15.5636 18.2355 15.4453C18.3319 15.3406 18.405 15.2165 18.4496 15.0814C18.5001 14.9286 18.5001 14.7572 18.5001 14.4146V6.29749C18.5001 5.95484 18.5001 5.78352 18.4496 5.63072C18.405 5.49555 18.3319 5.37146 18.2355 5.26678C18.1264 5.14844 17.9767 5.06524 17.6771 4.89883L10.2771 0.787724C9.99352 0.630166 9.85172 0.551387 9.70155 0.520501C9.56864 0.493166 9.43156 0.493166 9.29865 0.520501C9.14848 0.551387 9.00667 0.630166 8.72307 0.787724L1.32307 4.89883C1.02355 5.06524 0.873784 5.14844 0.764732 5.26678C0.668256 5.37146 0.595246 5.49555 0.550583 5.63072C0.500098 5.78352 0.500098 5.95484 0.500098 6.29749Z"  stroke-linecap="round" stroke-linejoin="round"/>
</svg>
