<svg xmlns="http://www.w3.org/2000/svg" width="24" height="24" viewBox="0 0 20.8871 20.8671" fill="none" stroke="currentColor" stroke-width="2" stroke-linecap="round" stroke-linejoin="round">
<path d="M8.44356 11.4336C8.87301 12.0077 9.42092 12.4827 10.0501 12.8265C10.6793 13.1703 11.3751 13.3747 12.0902 13.4259C12.8054 13.4771 13.5231 13.3739 14.1949 13.1233C14.8667 12.8728 15.4767 12.4806 15.9836 11.9736L18.9836 8.97356C19.8944 8.03055 20.3983 6.76754 20.3869 5.45655C20.3755 4.14557 19.8497 2.89151 18.9227 1.96447C17.9956 1.03743 16.7415 0.511581 15.4306 0.500189C14.1196 0.488797 12.8566 0.992769 11.9136 1.90356L10.1936 3.61356M12.4436 9.43356C12.0141 8.85943 11.4662 8.38438 10.837 8.04062C10.2078 7.69686 9.51205 7.49244 8.79691 7.44123C8.08177 7.39001 7.36397 7.49319 6.69221 7.74378C6.02045 7.99436 5.41044 8.38649 4.90356 8.89356L1.90356 11.8936C0.992769 12.8366 0.488797 14.0996 0.500189 15.4106C0.511581 16.7216 1.03743 17.9756 1.96447 18.9027C2.89151 19.8297 4.14557 20.3555 5.45655 20.3669C6.76754 20.3783 8.03055 19.8744 8.97356 18.9636L10.6836 17.2536"  stroke-linecap="round" stroke-linejoin="round"/>
</svg>
