<svg xmlns="http://www.w3.org/2000/svg" width="24" height="24" viewBox="0 0 19 19" fill="none" stroke="currentColor" stroke-width="2" stroke-linecap="round" stroke-linejoin="round">
<path d="M18.5 6.50001L18.5 0.50001M18.5 0.50001H12.5M18.5 0.50001L9.5 9.5M7.5 0.5H5.3C3.61984 0.5 2.77976 0.5 2.13803 0.826981C1.57354 1.1146 1.1146 1.57354 0.826981 2.13803C0.5 2.77976 0.5 3.61984 0.5 5.3V13.7C0.5 15.3802 0.5 16.2202 0.826981 16.862C1.1146 17.4265 1.57354 17.8854 2.13803 18.173C2.77976 18.5 3.61984 18.5 5.3 18.5H13.7C15.3802 18.5 16.2202 18.5 16.862 18.173C17.4265 17.8854 17.8854 17.4265 18.173 16.862C18.5 16.2202 18.5 15.3802 18.5 13.7V11.5"  stroke-linecap="round" stroke-linejoin="round"/>
</svg>
