<svg xmlns="http://www.w3.org/2000/svg" width="24" height="24" viewBox="0 0 21 21" fill="none" stroke="currentColor" stroke-width="2" stroke-linecap="round" stroke-linejoin="round">
<path d="M7 14L14 6.99998M7.5 2.5V0.5M13.5 18.5V20.5M2.5 7.5H0.5M18.5 13.5H20.5M3.41421 3.41421L2 2M17.5858 17.5857L19 18.9999M10.5 16.1568L8.37871 18.2781C6.81662 19.8402 4.28396 19.8402 2.72186 18.2781C1.15976 16.716 1.15976 14.1833 2.72186 12.6212L4.84318 10.4999M16.1569 10.4999L18.2782 8.37859C19.8403 6.81649 19.8403 4.28383 18.2782 2.72174C16.7161 1.15964 14.1835 1.15964 12.6214 2.72174L10.5 4.84306"  stroke-linecap="round" stroke-linejoin="round"/>
</svg>
