<svg xmlns="http://www.w3.org/2000/svg" width="24" height="24" viewBox="0 0 20.9995 20.9995" fill="none" stroke="currentColor" stroke-width="2" stroke-linecap="round" stroke-linejoin="round">
<path d="M1.84025 15.4997C0.588097 13.3298 1.22473 10.5644 3.29795 9.16006L3.30018 9.15784C4.96564 8.03235 7.15775 8.07012 8.78433 9.25228L12.2164 11.7477C13.8418 12.9299 16.0339 12.9676 17.7005 11.8421L17.7027 11.8399C19.7771 10.4356 20.4148 7.66792 19.1604 5.50026M15.502 19.1593C13.3321 20.4114 10.5667 19.7748 9.16229 17.7016L9.16006 17.6994C8.03457 16.0339 8.07234 13.8418 9.2545 12.2152L11.7499 8.78317C12.9321 7.1577 12.9699 4.96559 11.8444 3.29901L11.8399 3.29679C10.4356 1.22468 7.66792 0.585823 5.50026 1.8402M17.5705 3.42901C21.4758 7.33436 21.4758 13.6651 17.5705 17.5705C13.6651 21.4758 7.33436 21.4758 3.42901 17.5705C-0.476337 13.6651 -0.476337 7.33436 3.42901 3.42901C7.33436 -0.476337 13.6651 -0.476337 17.5705 3.42901Z"  stroke-linecap="round" stroke-linejoin="round"/>
</svg>
