<svg xmlns="http://www.w3.org/2000/svg" width="24" height="24" viewBox="0 0 19 20.0564" fill="none" stroke="currentColor" stroke-width="2" stroke-linecap="round" stroke-linejoin="round">
<path d="M3.5 15.0282C3.5 15.3795 3.5 15.5551 3.51567 15.7078C3.64575 16.9756 4.5626 18.0228 5.80206 18.3193C5.95134 18.355 6.1255 18.3782 6.47368 18.4247L13.0656 19.3036C14.942 19.5538 15.8803 19.6789 16.6084 19.3893C17.2478 19.1351 17.7803 18.6689 18.1168 18.0688C18.5 17.3853 18.5 16.4387 18.5 14.5457V5.51066C18.5 3.61762 18.5 2.6711 18.1168 1.98757C17.7803 1.38746 17.2478 0.921226 16.6084 0.66702C15.8803 0.37748 14.942 0.502576 13.0656 0.752767L6.47368 1.63169C6.12546 1.67812 5.95135 1.70134 5.80206 1.73705C4.5626 2.03354 3.64575 3.08076 3.51567 4.34853C3.5 4.50123 3.5 4.67688 3.5 5.02818M9.5 6.02818L13.5 10.0282M13.5 10.0282L9.5 14.0282M13.5 10.0282H0.5"  stroke-linecap="round" stroke-linejoin="round"/>
</svg>
