<svg xmlns="http://www.w3.org/2000/svg" width="24" height="24" viewBox="0 0 19 19" fill="none" stroke="currentColor" stroke-width="2" stroke-linecap="round" stroke-linejoin="round">
<path d="M13.5 14.5L18.5 9.50002M18.5 9.50002L13.5 4.50002M18.5 9.50002H6.5M9.5 14.5C9.5 15.43 9.5 15.895 9.39778 16.2765C9.12038 17.3118 8.31173 18.1204 7.27646 18.3978C6.89496 18.5 6.42997 18.5 5.5 18.5H5C3.60218 18.5 2.90326 18.5 2.35195 18.2717C1.61687 17.9672 1.03284 17.3832 0.728362 16.6481C0.5 16.0968 0.5 15.3978 0.5 14V5.00002C0.5 3.60219 0.5 2.90328 0.728362 2.35197C1.03284 1.61688 1.61687 1.03286 2.35195 0.728379C2.90326 0.500018 3.60218 0.500018 5 0.500018H5.5C6.42997 0.500018 6.89496 0.500018 7.27646 0.602241C8.31173 0.879642 9.12038 1.68828 9.39778 2.72356C9.5 3.10506 9.5 3.57005 9.5 4.50002"  stroke-linecap="round" stroke-linejoin="round"/>
</svg>
