<svg xmlns="http://www.w3.org/2000/svg" width="24" height="24" viewBox="0 0 19 18.235" fill="none" stroke="currentColor" stroke-width="2" stroke-linecap="round" stroke-linejoin="round">
<path d="M13.5 14.1175L18.5 9.11752M18.5 9.11752L13.5 4.11751M18.5 9.11752H6.5M9.5 14.1175C9.5 14.4131 9.5 14.5609 9.48901 14.6889C9.37482 16.0195 8.39486 17.1144 7.08503 17.3748C6.95903 17.3998 6.81202 17.4162 6.51835 17.4488L5.49694 17.5623C3.96248 17.7328 3.19521 17.818 2.58566 17.623C1.77293 17.3629 1.10942 16.769 0.761178 15.99C0.5 15.4057 0.5 14.6338 0.5 13.0898V5.14521C0.5 3.60128 0.5 2.82931 0.761179 2.24503C1.10942 1.46599 1.77293 0.872117 2.58566 0.61204C3.19521 0.416983 3.96246 0.502232 5.49694 0.67273L6.51835 0.78622C6.81212 0.818861 6.95901 0.835182 7.08503 0.86024C8.39486 1.12067 9.37482 2.21555 9.48901 3.54612C9.5 3.67415 9.5 3.82194 9.5 4.11751"  stroke-linecap="round" stroke-linejoin="round"/>
</svg>
