<svg xmlns="http://www.w3.org/2000/svg" width="24" height="24" viewBox="0 0 19 19" fill="none" stroke="currentColor" stroke-width="2" stroke-linecap="round" stroke-linejoin="round">
<path d="M3.5 14.5C3.5 15.43 3.5 15.895 3.60222 16.2765C3.87962 17.3118 4.68827 18.1204 5.72354 18.3978C6.10504 18.5 6.57003 18.5 7.5 18.5H13.7C15.3802 18.5 16.2202 18.5 16.862 18.173C17.4265 17.8854 17.8854 17.4265 18.173 16.862C18.5 16.2203 18.5 15.3802 18.5 13.7V5.30002C18.5 3.61986 18.5 2.77978 18.173 2.13805C17.8854 1.57356 17.4265 1.11462 16.862 0.826999C16.2202 0.500018 15.3802 0.500018 13.7 0.500018H7.5C6.57003 0.500018 6.10504 0.500018 5.72354 0.602241C4.68827 0.879642 3.87962 1.68829 3.60222 2.72356C3.5 3.10506 3.5 3.57005 3.5 4.50002M9.5 5.50002L13.5 9.50002M13.5 9.50002L9.5 13.5M13.5 9.50002H0.5"  stroke-linecap="round" stroke-linejoin="round"/>
</svg>
