<svg xmlns="http://www.w3.org/2000/svg" width="24" height="24" viewBox="0 0 19 19" fill="none" stroke="currentColor" stroke-width="2" stroke-linecap="round" stroke-linejoin="round">
<g>
<path d="M0.5 5.3C0.5 3.61984 0.5 2.77976 0.826981 2.13803C1.1146 1.57354 1.57354 1.1146 2.13803 0.826981C2.77976 0.5 3.61984 0.5 5.3 0.5H13.7C15.3802 0.5 16.2202 0.5 16.862 0.826981C17.4265 1.1146 17.8854 1.57354 18.173 2.13803C18.5 2.77976 18.5 3.61984 18.5 5.3V13.7C18.5 15.3802 18.5 16.2202 18.173 16.862C17.8854 17.4265 17.4265 17.8854 16.862 18.173C16.2202 18.5 15.3802 18.5 13.7 18.5H5.3C3.61984 18.5 2.77976 18.5 2.13803 18.173C1.57354 17.8854 1.1146 17.4265 0.826981 16.862C0.5 16.2202 0.5 15.3802 0.5 13.7V5.3Z"  stroke-linecap="round" stroke-linejoin="round"/>
<path d="M11.3333 4.8C11.3333 4.51997 11.3333 4.37996 11.2788 4.273C11.2309 4.17892 11.1544 4.10243 11.0603 4.0545C10.9534 4 10.8134 4 10.5333 4H8.46667C8.18664 4 8.04663 4 7.93967 4.0545C7.84559 4.10243 7.7691 4.17892 7.72116 4.273C7.66667 4.37996 7.66667 4.51997 7.66667 4.8V6.86667C7.66667 7.14669 7.66667 7.28671 7.61217 7.39366C7.56423 7.48774 7.48774 7.56423 7.39366 7.61217C7.28671 7.66667 7.14669 7.66667 6.86667 7.66667H4.8C4.51997 7.66667 4.37996 7.66667 4.273 7.72116C4.17892 7.7691 4.10243 7.84559 4.0545 7.93967C4 8.04663 4 8.18664 4 8.46667V10.5333C4 10.8134 4 10.9534 4.0545 11.0603C4.10243 11.1544 4.17892 11.2309 4.273 11.2788C4.37996 11.3333 4.51997 11.3333 4.8 11.3333H6.86667C7.14669 11.3333 7.28671 11.3333 7.39366 11.3878C7.48774 11.4358 7.56423 11.5123 7.61217 11.6063C7.66667 11.7133 7.66667 11.8533 7.66667 12.1333V14.2C7.66667 14.48 7.66667 14.62 7.72116 14.727C7.7691 14.8211 7.84559 14.8976 7.93967 14.9455C8.04663 15 8.18664 15 8.46667 15H10.5333C10.8134 15 10.9534 15 11.0603 14.9455C11.1544 14.8976 11.2309 14.8211 11.2788 14.727C11.3333 14.62 11.3333 14.48 11.3333 14.2V12.1333C11.3333 11.8533 11.3333 11.7133 11.3878 11.6063C11.4358 11.5123 11.5123 11.4358 11.6063 11.3878C11.7133 11.3333 11.8533 11.3333 12.1333 11.3333H14.2C14.48 11.3333 14.62 11.3333 14.727 11.2788C14.8211 11.2309 14.8976 11.1544 14.9455 11.0603C15 10.9534 15 10.8134 15 10.5333V8.46667C15 8.18664 15 8.04663 14.9455 7.93967C14.8976 7.84559 14.8211 7.7691 14.727 7.72116C14.62 7.66667 14.48 7.66667 14.2 7.66667H12.1333C11.8533 7.66667 11.7133 7.66667 11.6063 7.61217C11.5123 7.56423 11.4358 7.48774 11.3878 7.39366C11.3333 7.28671 11.3333 7.14669 11.3333 6.86667V4.8Z"  stroke-linecap="round" stroke-linejoin="round"/>
</g>
</svg>
