<svg xmlns="http://www.w3.org/2000/svg" width="24" height="24" viewBox="0 0 19 19" fill="none" stroke="currentColor" stroke-width="2" stroke-linecap="round" stroke-linejoin="round">
<path d="M12.5 2.1C12.5 1.53995 12.5 1.25992 12.391 1.04601C12.2951 0.857848 12.1422 0.704868 11.954 0.608994C11.7401 0.500001 11.4601 0.500001 10.9 0.500001H8.1C7.53995 0.500001 7.25992 0.500001 7.04601 0.608994C6.85785 0.704868 6.70487 0.857848 6.60899 1.04601C6.5 1.25992 6.5 1.53995 6.5 2.1V4.9C6.5 5.46005 6.5 5.74008 6.39101 5.95399C6.29513 6.14215 6.14215 6.29513 5.95399 6.39101C5.74008 6.5 5.46005 6.5 4.9 6.5H2.1C1.53995 6.5 1.25992 6.5 1.04601 6.60899C0.857848 6.70487 0.704868 6.85785 0.608994 7.04601C0.500001 7.25992 0.500001 7.53995 0.500001 8.1V10.9C0.500001 11.4601 0.500001 11.7401 0.608994 11.954C0.704868 12.1422 0.857848 12.2951 1.04601 12.391C1.25992 12.5 1.53995 12.5 2.1 12.5H4.9C5.46005 12.5 5.74008 12.5 5.95399 12.609C6.14215 12.7049 6.29513 12.8578 6.39101 13.046C6.5 13.2599 6.5 13.5399 6.5 14.1V16.9C6.5 17.4601 6.5 17.7401 6.60899 17.954C6.70487 18.1422 6.85785 18.2951 7.04601 18.391C7.25992 18.5 7.53995 18.5 8.1 18.5H10.9C11.4601 18.5 11.7401 18.5 11.954 18.391C12.1422 18.2951 12.2951 18.1422 12.391 17.954C12.5 17.7401 12.5 17.4601 12.5 16.9V14.1C12.5 13.5399 12.5 13.2599 12.609 13.046C12.7049 12.8578 12.8578 12.7049 13.046 12.609C13.2599 12.5 13.5399 12.5 14.1 12.5H16.9C17.4601 12.5 17.7401 12.5 17.954 12.391C18.1422 12.2951 18.2951 12.1422 18.391 11.954C18.5 11.7401 18.5 11.4601 18.5 10.9V8.1C18.5 7.53995 18.5 7.25992 18.391 7.04601C18.2951 6.85785 18.1422 6.70487 17.954 6.60899C17.7401 6.5 17.4601 6.5 16.9 6.5L14.1 6.5C13.5399 6.5 13.2599 6.5 13.046 6.39101C12.8578 6.29513 12.7049 6.14215 12.609 5.95399C12.5 5.74008 12.5 5.46005 12.5 4.9V2.1Z"  stroke-linecap="round" stroke-linejoin="round"/>
</svg>
