<svg xmlns="http://www.w3.org/2000/svg" width="24" height="24" viewBox="0 0 19 19" fill="none" stroke="currentColor" stroke-width="2" stroke-linecap="round" stroke-linejoin="round">
<path d="M5.5 9.5H13.5M5.3 18.5H13.7C15.3802 18.5 16.2202 18.5 16.862 18.173C17.4265 17.8854 17.8854 17.4265 18.173 16.862C18.5 16.2202 18.5 15.3802 18.5 13.7V5.3C18.5 3.61984 18.5 2.77976 18.173 2.13803C17.8854 1.57354 17.4265 1.1146 16.862 0.826981C16.2202 0.5 15.3802 0.5 13.7 0.5H5.3C3.61984 0.5 2.77976 0.5 2.13803 0.826981C1.57354 1.1146 1.1146 1.57354 0.826981 2.13803C0.5 2.77976 0.5 3.61984 0.5 5.3V13.7C0.5 15.3802 0.5 16.2202 0.826981 16.862C1.1146 17.4265 1.57354 17.8854 2.13803 18.173C2.77976 18.5 3.61984 18.5 5.3 18.5Z"  stroke-linecap="round" stroke-linejoin="round"/>
</svg>
