<svg xmlns="http://www.w3.org/2000/svg" width="24" height="24" viewBox="0 0 14.8388 21" fill="none" stroke="currentColor" stroke-width="2" stroke-linecap="round" stroke-linejoin="round">
<path d="M7.41937 13.5L7.41938 20.5M3.41938 5.80813V7.93875C3.41938 8.14677 3.41938 8.25078 3.39896 8.35026C3.38084 8.43853 3.35088 8.52393 3.30989 8.60417C3.26369 8.69461 3.19871 8.77583 3.06877 8.93826L1.49899 10.9005C0.833247 11.7327 0.500379 12.1487 0.500001 12.4989C0.499672 12.8035 0.638137 13.0916 0.876148 13.2815C1.14983 13.5 1.68268 13.5 2.74837 13.5H12.0904C13.1561 13.5 13.6889 13.5 13.9626 13.2815C14.2006 13.0916 14.3391 12.8035 14.3387 12.4989C14.3384 12.1487 14.0055 11.7327 13.3398 10.9005L11.77 8.93826C11.64 8.77583 11.5751 8.69461 11.5289 8.60417C11.4879 8.52393 11.4579 8.43853 11.4398 8.35026C11.4194 8.25078 11.4194 8.14677 11.4194 7.93875V5.80813C11.4194 5.69301 11.4194 5.63545 11.4259 5.57868C11.4317 5.52825 11.4413 5.47834 11.4546 5.42937C11.4697 5.37424 11.4911 5.3208 11.5338 5.21391L12.5417 2.69423C12.8357 1.95914 12.9827 1.59159 12.9214 1.29655C12.8678 1.03853 12.7145 0.81211 12.4949 0.666505C12.2437 0.500001 11.8478 0.500001 11.0561 0.500001H3.78263C2.99091 0.500001 2.59506 0.500001 2.34388 0.666505C2.12423 0.81211 1.97094 1.03853 1.91732 1.29655C1.85601 1.59159 2.00303 1.95914 2.29707 2.69423L3.30494 5.21391C3.34769 5.3208 3.36907 5.37424 3.38411 5.42937C3.39747 5.47834 3.40709 5.52825 3.41287 5.57868C3.41938 5.63545 3.41938 5.69301 3.41938 5.80813Z"  stroke-linecap="round" stroke-linejoin="round"/>
</svg>
