<svg xmlns="http://www.w3.org/2000/svg" width="24" height="24" viewBox="0 0 20.0475 20.0475" fill="none" stroke="currentColor" stroke-width="2" stroke-linecap="round" stroke-linejoin="round">
<path d="M6.15685 13.8906L0.5 19.5475M9.47454 4.91611L7.91365 6.47699C7.78633 6.60432 7.72267 6.66798 7.65014 6.71857C7.58576 6.76347 7.51631 6.80063 7.44324 6.82929C7.36092 6.86158 7.27264 6.87924 7.09607 6.91455L3.43161 7.64745C2.4793 7.83791 2.00315 7.93314 1.78039 8.18419C1.58632 8.4029 1.4977 8.69559 1.53786 8.98522C1.58395 9.31767 1.92731 9.66103 2.61402 10.3477L9.69976 17.4335C10.3865 18.1202 10.7298 18.4636 11.0623 18.5096C11.3519 18.5498 11.6446 18.4612 11.8633 18.2671C12.1144 18.0444 12.2096 17.5682 12.4001 16.6159L13.133 12.9514C13.1683 12.7749 13.1859 12.6866 13.2182 12.6043C13.2469 12.5312 13.284 12.4617 13.3289 12.3974C13.3795 12.3248 13.4432 12.2612 13.5705 12.1338L15.1314 10.573C15.2128 10.4916 15.2535 10.4509 15.2982 10.4153C15.338 10.3837 15.3801 10.3552 15.4242 10.3301C15.4738 10.3017 15.5267 10.2791 15.6325 10.2337L18.1269 9.16469C18.8546 8.85282 19.2184 8.69688 19.3837 8.4449C19.5282 8.22454 19.5799 7.95604 19.5276 7.69777C19.4677 7.40243 19.1878 7.12251 18.628 6.56269L13.4848 1.41955C12.925 0.859725 12.6451 0.579812 12.3497 0.519941C12.0915 0.467584 11.823 0.519292 11.6026 0.663825C11.3506 0.829102 11.1947 1.19295 10.8828 1.92065L9.8138 4.41501C9.76845 4.52083 9.74578 4.57373 9.71743 4.62335C9.69226 4.66742 9.66376 4.70951 9.63219 4.74926C9.59665 4.794 9.55595 4.8347 9.47454 4.91611Z"  stroke-linecap="round" stroke-linejoin="round"/>
</svg>
