<svg xmlns="http://www.w3.org/2000/svg" width="24" height="24" viewBox="0 0 17 17" fill="none" stroke="currentColor" stroke-width="2" stroke-linecap="round" stroke-linejoin="round">
<g>
<path d="M10.7222 8.05561C10.7222 8.05561 8.5 9.83339 8.5 12.9445"  stroke-linecap="round" stroke-linejoin="round"/>
<path d="M6.77812 5.88934C7.88861 4.77884 7.88861 2.97835 6.77812 1.86786C5.10251 0.192229 1.41615 0.527358 1.41615 0.527358C1.41615 0.527358 1.08102 4.21372 2.75665 5.88934C3.86714 6.99982 5.66763 6.99982 6.77812 5.88934Z"  stroke-linecap="round" stroke-linejoin="round"/>
<path d="M10.9917 7.78617C11.9436 8.73799 13.4869 8.73799 14.4387 7.78617C15.875 6.3499 15.5877 3.19015 15.5877 3.19015C15.5877 3.19015 12.4279 2.9029 10.9917 4.33915C10.0399 5.29102 10.0399 6.83426 10.9917 7.78617Z"  stroke-linecap="round" stroke-linejoin="round"/>
<path d="M6.7222 6.2778C6.7222 6.2778 8.49998 8.50003 8.49998 12.9438"  stroke-linecap="round" stroke-linejoin="round"/>
<path d="M16.5 16.4999C14.5455 14.3196 11.6859 12.9444 8.5 12.9444C5.31416 12.9444 2.45452 14.3196 0.500005 16.4999"  stroke-linecap="round" stroke-linejoin="round"/>
</g>
</svg>
