<svg xmlns="http://www.w3.org/2000/svg" width="24" height="24" viewBox="0 0 19 19" fill="none" stroke="currentColor" stroke-width="2" stroke-linecap="round" stroke-linejoin="round">
<path d="M12.5 5.50002H6.1C5.53995 5.50002 5.25992 5.50002 5.04601 5.39103C4.85785 5.29515 4.70487 5.14217 4.60899 4.95401C4.5 4.7401 4.5 4.46007 4.5 3.90002V0.500021M14.5 18.5V12.1C14.5 11.54 14.5 11.2599 14.391 11.046C14.2951 10.8579 14.1422 10.7049 13.954 10.609C13.7401 10.5 13.4601 10.5 12.9 10.5H6.1C5.53995 10.5 5.25992 10.5 5.04601 10.609C4.85785 10.7049 4.70487 10.8579 4.60899 11.046C4.5 11.2599 4.5 11.54 4.5 12.1V18.5M18.5 6.8255V13.7C18.5 15.3802 18.5 16.2203 18.173 16.862C17.8854 17.4265 17.4265 17.8854 16.862 18.173C16.2202 18.5 15.3802 18.5 13.7 18.5H5.3C3.61984 18.5 2.77976 18.5 2.13803 18.173C1.57354 17.8854 1.1146 17.4265 0.826981 16.862C0.5 16.2203 0.5 15.3802 0.5 13.7V5.30002C0.5 3.61986 0.5 2.77979 0.826981 2.13805C1.1146 1.57356 1.57354 1.11462 2.13803 0.827002C2.77976 0.500021 3.61984 0.500021 5.3 0.500021H12.1745C12.6637 0.500021 12.9083 0.500021 13.1385 0.555282C13.3425 0.604275 13.5376 0.685084 13.7166 0.794741C13.9184 0.918425 14.0914 1.09138 14.4373 1.43728L17.5627 4.56276C17.9086 4.90867 18.0816 5.08162 18.2053 5.28345C18.3149 5.4624 18.3957 5.65749 18.4447 5.86156C18.5 6.09173 18.5 6.33632 18.5 6.8255Z"  stroke-linecap="round" stroke-linejoin="round"/>
</svg>
