<svg xmlns="http://www.w3.org/2000/svg" width="24" height="24" viewBox="0 0 19 19" fill="none" stroke="currentColor" stroke-width="2" stroke-linecap="round" stroke-linejoin="round">
<path d="M4.5 0.500021H12.1745C12.6637 0.500021 12.9083 0.500021 13.1385 0.555282C13.3425 0.604275 13.5376 0.685084 13.7166 0.794741C13.9184 0.918425 14.0914 1.09138 14.4373 1.43728L17.5627 4.56276C17.9086 4.90867 18.0816 5.08162 18.2053 5.28345C18.3149 5.4624 18.3957 5.65749 18.4447 5.86156C18.5 6.09173 18.5 6.33632 18.5 6.8255V14.5M10 7.50002H6.1C5.53995 7.50002 5.25992 7.50002 5.04601 7.39103C4.85785 7.29515 4.70487 7.14217 4.60899 6.95401C4.5 6.7401 4.5 6.46007 4.5 5.90002V4.00002M11 18.5V14.1C11 13.54 11 13.2599 10.891 13.046C10.7951 12.8579 10.6422 12.7049 10.454 12.609C10.2401 12.5 9.96005 12.5 9.4 12.5H6.1C5.53995 12.5 5.25992 12.5 5.04601 12.609C4.85785 12.7049 4.70487 12.8579 4.60899 13.046C4.5 13.2599 4.5 13.54 4.5 14.1V18.5M15 7.66276V15.3C15 16.4201 15 16.9802 14.782 17.408C14.5903 17.7843 14.2843 18.0903 13.908 18.282C13.4802 18.5 12.9201 18.5 11.8 18.5H3.7C2.5799 18.5 2.01984 18.5 1.59202 18.282C1.2157 18.0903 0.909734 17.7843 0.717987 17.408C0.5 16.9802 0.5 16.4201 0.5 15.3V7.20002C0.5 6.07992 0.5 5.51986 0.717987 5.09204C0.909734 4.71572 1.2157 4.40976 1.59202 4.21801C2.01984 4.00002 2.5799 4.00002 3.7 4.00002H11.3373C11.5818 4.00002 11.7041 4.00002 11.8192 4.02765C11.9213 4.05215 12.0188 4.09255 12.1083 4.14738C12.2092 4.20922 12.2957 4.2957 12.4686 4.46865L14.5314 6.53139C14.7043 6.70434 14.7908 6.79082 14.8526 6.89174C14.9075 6.98121 14.9479 7.07875 14.9724 7.18079C15 7.29588 15 7.41817 15 7.66276Z"  stroke-linecap="round" stroke-linejoin="round"/>
</svg>
