<svg xmlns="http://www.w3.org/2000/svg" width="24" height="24" viewBox="0 0 18.9136 21" fill="none" stroke="currentColor" stroke-width="2" stroke-linecap="round" stroke-linejoin="round">
<g>
<path d="M6.85012 17.8711L7.43457 19.1856C7.6083 19.5768 7.89184 19.9093 8.25079 20.1426C8.60974 20.3759 9.02867 20.5001 9.45679 20.5C9.8849 20.5001 10.3038 20.3759 10.6628 20.1426C11.0217 19.9093 11.3053 19.5768 11.479 19.1856L12.0635 17.8711C12.2715 17.4047 12.6215 17.0159 13.0635 16.76C13.5082 16.5034 14.0228 16.3941 14.5335 16.4478L15.9635 16.6C16.3891 16.645 16.8187 16.5656 17.2001 16.3713C17.5816 16.1771 17.8984 15.8763 18.1123 15.5056C18.3265 15.135 18.4286 14.7103 18.4061 14.2829C18.3836 13.8555 18.2376 13.4438 17.9857 13.0978L17.139 11.9344C16.8375 11.5171 16.6764 11.0148 16.679 10.5C16.6789 9.98659 16.8415 9.48635 17.1435 9.07111L17.9901 7.90778C18.242 7.56175 18.388 7.15007 18.4105 6.72267C18.433 6.29528 18.331 5.87054 18.1168 5.5C17.9029 5.12923 17.586 4.82849 17.2046 4.63423C16.8232 4.43997 16.3936 4.36053 15.9679 4.40556L14.5379 4.55778C14.0272 4.61141 13.5127 4.50212 13.0679 4.24556C12.625 3.98825 12.275 3.59736 12.0679 3.12889L11.479 1.81444C11.3053 1.42317 11.0217 1.09072 10.6628 0.857399C10.3038 0.624082 9.8849 0.49993 9.45679 0.5C9.02867 0.49993 8.60974 0.624082 8.25079 0.857399C7.89184 1.09072 7.6083 1.42317 7.43457 1.81444L6.85012 3.12889C6.64305 3.59736 6.29299 3.98825 5.85012 4.24556C5.40534 4.50212 4.89079 4.61141 4.38012 4.55778L2.94568 4.40556C2.52001 4.36053 2.09042 4.43997 1.70899 4.63423C1.32757 4.82849 1.01069 5.12923 0.796787 5.5C0.582608 5.87054 0.48057 6.29528 0.503054 6.72267C0.525538 7.15007 0.671578 7.56175 0.923454 7.90778L1.77012 9.07111C2.07206 9.48635 2.23466 9.98659 2.23456 10.5C2.23466 11.0134 2.07206 11.5137 1.77012 11.9289L0.923454 13.0922C0.671578 13.4382 0.525538 13.8499 0.503054 14.2773C0.48057 14.7047 0.582608 15.1295 0.796787 15.5C1.0109 15.8706 1.32782 16.1712 1.70918 16.3654C2.09055 16.5596 2.52004 16.6392 2.94568 16.5944L4.37568 16.4422C4.88635 16.3886 5.40089 16.4979 5.84568 16.7544C6.2902 17.011 6.64188 17.402 6.85012 17.8711Z"  stroke-linecap="round" stroke-linejoin="round"/>
<path d="M9.455 13.5C11.1119 13.5 12.455 12.1569 12.455 10.5C12.455 8.84315 11.1119 7.5 9.455 7.5C7.79815 7.5 6.455 8.84315 6.455 10.5C6.455 12.1569 7.79815 13.5 9.455 13.5Z"  stroke-linecap="round" stroke-linejoin="round"/>
</g>
</svg>
