<svg xmlns="http://www.w3.org/2000/svg" width="24" height="24" viewBox="0 0 19 19" fill="none" stroke="currentColor" stroke-width="2" stroke-linecap="round" stroke-linejoin="round">
<path d="M12.5505 6.5H3C1.61929 6.5 0.5 5.38071 0.5 4C0.5 2.61929 1.61929 1.5 3 1.5H12.5505M6.44949 17.5H16C17.3807 17.5 18.5 16.3807 18.5 15C18.5 13.6193 17.3807 12.5 16 12.5H6.44949M0.5 15C0.5 16.933 2.067 18.5 4 18.5C5.933 18.5 7.5 16.933 7.5 15C7.5 13.067 5.933 11.5 4 11.5C2.067 11.5 0.5 13.067 0.5 15ZM18.5 4C18.5 5.933 16.933 7.5 15 7.5C13.067 7.5 11.5 5.933 11.5 4C11.5 2.067 13.067 0.5 15 0.5C16.933 0.5 18.5 2.067 18.5 4Z"  stroke-linecap="round" stroke-linejoin="round"/>
</svg>
