<svg xmlns="http://www.w3.org/2000/svg" width="24" height="24" viewBox="0 0 21 21" fill="none" stroke="currentColor" stroke-width="2" stroke-linecap="round" stroke-linejoin="round">
<g>
<path d="M10.5 13.5C12.1569 13.5 13.5 12.1569 13.5 10.5C13.5 8.84315 12.1569 7.5 10.5 7.5C8.84315 7.5 7.5 8.84315 7.5 10.5C7.5 12.1569 8.84315 13.5 10.5 13.5Z"  stroke-linecap="round" stroke-linejoin="round"/>
<path d="M17.2273 13.2273C17.1063 13.5015 17.0702 13.8056 17.1236 14.1005C17.1771 14.3954 17.3177 14.6676 17.5273 14.8818L17.5818 14.9364C17.7509 15.1052 17.885 15.3057 17.9765 15.5265C18.068 15.7472 18.1151 15.9838 18.1151 16.2227C18.1151 16.4617 18.068 16.6983 17.9765 16.919C17.885 17.1397 17.7509 17.3402 17.5818 17.5091C17.413 17.6781 17.2124 17.8122 16.9917 17.9037C16.771 17.9952 16.5344 18.0423 16.2955 18.0423C16.0565 18.0423 15.8199 17.9952 15.5992 17.9037C15.3785 17.8122 15.178 17.6781 15.0091 17.5091L14.9545 17.4545C14.7403 17.245 14.4682 17.1044 14.1733 17.0509C13.8784 16.9974 13.5742 17.0335 13.3 17.1545C13.0311 17.2698 12.8018 17.4611 12.6403 17.705C12.4788 17.9489 12.3921 18.2347 12.3909 18.5273V18.6818C12.3909 19.164 12.1994 19.6265 11.8584 19.9675C11.5174 20.3084 11.0549 20.5 10.5727 20.5C10.0905 20.5 9.62805 20.3084 9.28708 19.9675C8.9461 19.6265 8.75455 19.164 8.75455 18.6818V18.6C8.74751 18.2991 8.65011 18.0073 8.47501 17.7625C8.29991 17.5176 8.05521 17.3312 7.77273 17.2273C7.49853 17.1063 7.19437 17.0702 6.89947 17.1236C6.60456 17.1771 6.33244 17.3177 6.11818 17.5273L6.06364 17.5818C5.89478 17.7509 5.69425 17.885 5.47353 17.9765C5.2528 18.068 5.01621 18.1151 4.77727 18.1151C4.53834 18.1151 4.30174 18.068 4.08102 17.9765C3.86029 17.885 3.65977 17.7509 3.49091 17.5818C3.32186 17.413 3.18775 17.2124 3.09626 16.9917C3.00476 16.771 2.95766 16.5344 2.95766 16.2955C2.95766 16.0565 3.00476 15.8199 3.09626 15.5992C3.18775 15.3785 3.32186 15.178 3.49091 15.0091L3.54545 14.9545C3.75503 14.7403 3.89562 14.4682 3.9491 14.1733C4.00257 13.8784 3.96647 13.5742 3.84545 13.3C3.73022 13.0311 3.53887 12.8018 3.29497 12.6403C3.05107 12.4788 2.76526 12.3921 2.47273 12.3909H2.31818C1.83597 12.3909 1.37351 12.1994 1.03253 11.8584C0.691558 11.5174 0.5 11.0549 0.5 10.5727C0.5 10.0905 0.691558 9.62805 1.03253 9.28708C1.37351 8.9461 1.83597 8.75455 2.31818 8.75455H2.4C2.7009 8.74751 2.99273 8.65011 3.23754 8.47501C3.48236 8.29991 3.66883 8.05521 3.77273 7.77273C3.89374 7.49853 3.92984 7.19437 3.87637 6.89947C3.8229 6.60456 3.68231 6.33244 3.47273 6.11818L3.41818 6.06364C3.24913 5.89478 3.11503 5.69425 3.02353 5.47353C2.93203 5.2528 2.88493 5.01621 2.88493 4.77727C2.88493 4.53834 2.93203 4.30174 3.02353 4.08102C3.11503 3.86029 3.24913 3.65977 3.41818 3.49091C3.58704 3.32186 3.78757 3.18775 4.00829 3.09626C4.22901 3.00476 4.46561 2.95766 4.70455 2.95766C4.94348 2.95766 5.18008 3.00476 5.4008 3.09626C5.62152 3.18775 5.82205 3.32186 5.99091 3.49091L6.04545 3.54545C6.25971 3.75503 6.53183 3.89562 6.82674 3.9491C7.12164 4.00257 7.4258 3.96647 7.7 3.84545H7.77273C8.04161 3.73022 8.27093 3.53887 8.43245 3.29497C8.59397 3.05107 8.68065 2.76526 8.68182 2.47273V2.31818C8.68182 1.83597 8.87338 1.37351 9.21435 1.03253C9.55533 0.691558 10.0178 0.5 10.5 0.5C10.9822 0.5 11.4447 0.691558 11.7856 1.03253C12.1266 1.37351 12.3182 1.83597 12.3182 2.31818V2.4C12.3193 2.69253 12.406 2.97834 12.5676 3.22224C12.7291 3.46614 12.9584 3.65749 13.2273 3.77273C13.5015 3.89374 13.8056 3.92984 14.1005 3.87637C14.3954 3.8229 14.6676 3.68231 14.8818 3.47273L14.9364 3.41818C15.1052 3.24913 15.3057 3.11503 15.5265 3.02353C15.7472 2.93203 15.9838 2.88493 16.2227 2.88493C16.4617 2.88493 16.6983 2.93203 16.919 3.02353C17.1397 3.11503 17.3402 3.24913 17.5091 3.41818C17.6781 3.58704 17.8122 3.78757 17.9037 4.00829C17.9952 4.22901 18.0423 4.46561 18.0423 4.70455C18.0423 4.94348 17.9952 5.18008 17.9037 5.4008C17.8122 5.62152 17.6781 5.82205 17.5091 5.99091L17.4545 6.04545C17.245 6.25971 17.1044 6.53183 17.0509 6.82674C16.9974 7.12164 17.0335 7.4258 17.1545 7.7V7.77273C17.2698 8.04161 17.4611 8.27093 17.705 8.43245C17.9489 8.59397 18.2347 8.68065 18.5273 8.68182H18.6818C19.164 8.68182 19.6265 8.87338 19.9675 9.21435C20.3084 9.55533 20.5 10.0178 20.5 10.5C20.5 10.9822 20.3084 11.4447 19.9675 11.7856C19.6265 12.1266 19.164 12.3182 18.6818 12.3182H18.6C18.3075 12.3193 18.0217 12.406 17.7778 12.5676C17.5339 12.7291 17.3425 12.9584 17.2273 13.2273Z"  stroke-linecap="round" stroke-linejoin="round"/>
</g>
</svg>
