<svg xmlns="http://www.w3.org/2000/svg" width="24" height="24" viewBox="0 0 19 15" fill="none" stroke="currentColor" stroke-width="2" stroke-linecap="round" stroke-linejoin="round">
<path d="M0.5 3.5L12.5 3.5M12.5 3.5C12.5 5.15686 13.8431 6.5 15.5 6.5C17.1569 6.5 18.5 5.15685 18.5 3.5C18.5 1.84315 17.1569 0.5 15.5 0.5C13.8431 0.5 12.5 1.84315 12.5 3.5ZM6.5 11.5L18.5 11.5M6.5 11.5C6.5 13.1569 5.15685 14.5 3.5 14.5C1.84315 14.5 0.5 13.1569 0.5 11.5C0.5 9.84315 1.84315 8.5 3.5 8.5C5.15685 8.5 6.5 9.84315 6.5 11.5Z"  stroke-linecap="round" stroke-linejoin="round"/>
</svg>
