<svg xmlns="http://www.w3.org/2000/svg" width="24" height="24" viewBox="0 0 19 19" fill="none" stroke="currentColor" stroke-width="2" stroke-linecap="round" stroke-linejoin="round">
<path d="M4.50002 8.5C3.57005 8.5 3.10506 8.5 2.72356 8.60222C1.68828 8.87962 0.879642 9.68827 0.602241 10.7235C0.500018 11.105 0.500018 11.57 0.500018 12.5V13.7C0.500018 15.3802 0.500018 16.2202 0.826999 16.862C1.11462 17.4265 1.57356 17.8854 2.13805 18.173C2.77978 18.5 3.61986 18.5 5.30002 18.5H13.7C15.3802 18.5 16.2203 18.5 16.862 18.173C17.4265 17.8854 17.8854 17.4265 18.173 16.862C18.5 16.2202 18.5 15.3802 18.5 13.7V12.5C18.5 11.57 18.5 11.105 18.3978 10.7235C18.1204 9.68827 17.3118 8.87962 16.2765 8.60222C15.895 8.5 15.43 8.5 14.5 8.5M13.5 4.5L9.50002 0.5M9.50002 0.5L5.50002 4.5M9.50002 0.5V12.5"  stroke-linecap="round" stroke-linejoin="round"/>
</svg>
