<svg xmlns="http://www.w3.org/2000/svg" width="24" height="24" viewBox="0 0 19.2317 17.8258" fill="none" stroke="currentColor" stroke-width="2" stroke-linecap="round" stroke-linejoin="round">
<path d="M18.2914 9.5203C18.5355 9.31105 18.6575 9.20643 18.7023 9.08193C18.7415 8.97265 18.7415 8.85313 18.7023 8.74385C18.6575 8.61935 18.5355 8.51473 18.2914 8.30548L9.82063 1.04486C9.4004 0.684665 9.19029 0.504567 9.0124 0.500154C8.8578 0.49632 8.71012 0.564241 8.61242 0.684119C8.5 0.822055 8.5 1.09879 8.5 1.65227V5.94752C6.36532 6.32098 4.41159 7.40265 2.95971 9.02676C1.37682 10.7974 0.501235 13.0888 0.5 15.4639V16.0759C1.54934 14.8118 2.85951 13.7894 4.34076 13.0788C5.6467 12.4523 7.05842 12.0812 8.5 11.9834V16.1735C8.5 16.727 8.5 17.0037 8.61242 17.1417C8.71012 17.2615 8.8578 17.3295 9.0124 17.3256C9.19029 17.3212 9.4004 17.1411 9.82063 16.7809L18.2914 9.5203Z"  stroke-linecap="round" stroke-linejoin="round"/>
</svg>
