<svg xmlns="http://www.w3.org/2000/svg" width="24" height="24" viewBox="0 0 19 21" fill="none" stroke="currentColor" stroke-width="2" stroke-linecap="round" stroke-linejoin="round">
<path d="M6.09 12.01L12.92 15.99M12.91 5.01L6.09 8.99M18.5 3.5C18.5 5.15685 17.1569 6.5 15.5 6.5C13.8431 6.5 12.5 5.15685 12.5 3.5C12.5 1.84315 13.8431 0.5 15.5 0.5C17.1569 0.5 18.5 1.84315 18.5 3.5ZM6.5 10.5C6.5 12.1569 5.15685 13.5 3.5 13.5C1.84315 13.5 0.5 12.1569 0.5 10.5C0.5 8.84315 1.84315 7.5 3.5 7.5C5.15685 7.5 6.5 8.84315 6.5 10.5ZM18.5 17.5C18.5 19.1569 17.1569 20.5 15.5 20.5C13.8431 20.5 12.5 19.1569 12.5 17.5C12.5 15.8431 13.8431 14.5 15.5 14.5C17.1569 14.5 18.5 15.8431 18.5 17.5Z"  stroke-linecap="round" stroke-linejoin="round"/>
</svg>
