<svg xmlns="http://www.w3.org/2000/svg" width="24" height="24" viewBox="0 0 21.0001 21.0001" fill="none" stroke="currentColor" stroke-width="2" stroke-linecap="round" stroke-linejoin="round">
<path d="M3.43005 3.43005L17.5701 17.5701M0.500051 7.02279V13.9773C0.500051 14.2219 0.500051 14.3442 0.527681 14.4593C0.552178 14.5613 0.592582 14.6589 0.647411 14.7483C0.709252 14.8493 0.795728 14.9357 0.96868 15.1087L5.89142 20.0314C6.06437 20.2044 6.15085 20.2908 6.25177 20.3527C6.34124 20.4075 6.43878 20.4479 6.54082 20.4724C6.65591 20.5001 6.7782 20.5001 7.02279 20.5001H13.9773C14.2219 20.5001 14.3442 20.5001 14.4593 20.4724C14.5613 20.4479 14.6589 20.4075 14.7483 20.3527C14.8493 20.2908 14.9357 20.2044 15.1087 20.0314L20.0314 15.1087C20.2044 14.9357 20.2908 14.8493 20.3527 14.7483C20.4075 14.6589 20.4479 14.5613 20.4724 14.4593C20.5001 14.3442 20.5001 14.2219 20.5001 13.9773V7.02279C20.5001 6.7782 20.5001 6.65591 20.4724 6.54082C20.4479 6.43878 20.4075 6.34124 20.3527 6.25177C20.2908 6.15085 20.2044 6.06437 20.0314 5.89142L15.1087 0.96868C14.9357 0.795728 14.8493 0.709252 14.7483 0.647411C14.6589 0.592582 14.5613 0.552178 14.4593 0.527681C14.3442 0.500051 14.2219 0.500051 13.9773 0.500051H7.02279C6.7782 0.500051 6.65591 0.500051 6.54082 0.527681C6.43878 0.552178 6.34124 0.592582 6.25177 0.647411C6.15085 0.709252 6.06437 0.795728 5.89142 0.96868L0.96868 5.89142C0.795728 6.06437 0.709252 6.15085 0.647411 6.25177C0.592582 6.34124 0.552178 6.43878 0.527681 6.54082C0.500051 6.65591 0.500051 6.7782 0.500051 7.02279Z"  stroke-linecap="round" stroke-linejoin="round"/>
</svg>
