<svg xmlns="http://www.w3.org/2000/svg" width="24" height="24" viewBox="0 0 21 21" fill="none" stroke="currentColor" stroke-width="2" stroke-linecap="round" stroke-linejoin="round">
<path d="M10.5 0.5V3M10.5 0.5C4.97715 0.5 0.5 4.97715 0.5 10.5M10.5 0.5C16.0228 0.5 20.5 4.97715 20.5 10.5M10.5 18V20.5M10.5 20.5C16.0228 20.5 20.5 16.0228 20.5 10.5M10.5 20.5C4.97715 20.5 0.5 16.0228 0.5 10.5M3 10.5H0.5M20.5 10.5H18M17.5784 17.5784L15.8047 15.8047M3.42163 17.5784L5.19715 15.8029M3.42163 3.5L5.15808 5.23645M17.5784 3.5L11.9999 9M12.5 10.5C12.5 11.6046 11.6046 12.5 10.5 12.5C9.39543 12.5 8.5 11.6046 8.5 10.5C8.5 9.39543 9.39543 8.5 10.5 8.5C11.6046 8.5 12.5 9.39543 12.5 10.5Z"  stroke-linecap="round" stroke-linejoin="round"/>
</svg>
