<svg xmlns="http://www.w3.org/2000/svg" width="24" height="24" viewBox="0 0 21 21" fill="none" stroke="currentColor" stroke-width="2" stroke-linecap="round" stroke-linejoin="round">
<path d="M16.2453 14.5C17.0362 13.3661 17.5 11.9872 17.5 10.5C17.5 9.98511 17.4444 9.4832 17.3389 8.99996M4.75469 14.5C3.96381 13.3662 3.5 11.9872 3.5 10.5C3.5 6.63401 6.63401 3.5 10.5 3.5C10.9221 3.5 11.3355 3.53737 11.7371 3.60897M14.9999 6L10.4999 10.5M20.5 10.5C20.5 16.0228 16.0228 20.5 10.5 20.5C4.97715 20.5 0.5 16.0228 0.5 10.5C0.5 4.97715 4.97715 0.5 10.5 0.5C16.0228 0.5 20.5 4.97715 20.5 10.5ZM11.5 10.5C11.5 11.0523 11.0523 11.5 10.5 11.5C9.94772 11.5 9.5 11.0523 9.5 10.5C9.5 9.94772 9.94772 9.5 10.5 9.5C11.0523 9.5 11.5 9.94772 11.5 10.5Z"  stroke-linecap="round" stroke-linejoin="round"/>
</svg>
