<svg xmlns="http://www.w3.org/2000/svg" width="24" height="24" viewBox="0 0 21 21" fill="none" stroke="currentColor" stroke-width="2" stroke-linecap="round" stroke-linejoin="round">
<path d="M20.5 10.5C20.5 16.0228 16.0228 20.5 10.5 20.5C4.97715 20.5 0.5 16.0228 0.5 10.5M20.5 10.5C20.5 4.97715 16.0228 0.5 10.5 0.5M20.5 10.5H18M0.5 10.5C0.5 4.97715 4.97715 0.5 10.5 0.5M0.5 10.5H3M10.5 0.5V3M17.5784 3.5L11.9999 9M17.5784 17.5784L17.3745 17.3745C16.6827 16.6827 16.3368 16.3368 15.9331 16.0894C15.5753 15.8701 15.1851 15.7085 14.7769 15.6105C14.3166 15.5 13.8274 15.5 12.849 15.5L8.15096 15.5C7.1726 15.5 6.68342 15.5 6.22307 15.6106C5.81493 15.7086 5.42475 15.8702 5.06686 16.0895C4.6632 16.3369 4.3173 16.6828 3.62549 17.3746L3.42163 17.5784M3.42163 3.5L5.15808 5.23645M12.5 10.5C12.5 11.6046 11.6046 12.5 10.5 12.5C9.39543 12.5 8.5 11.6046 8.5 10.5C8.5 9.39543 9.39543 8.5 10.5 8.5C11.6046 8.5 12.5 9.39543 12.5 10.5Z"  stroke-linecap="round" stroke-linejoin="round"/>
</svg>
