<svg xmlns="http://www.w3.org/2000/svg" width="24" height="24" viewBox="0 0 20.1213 20.1213" fill="none" stroke="currentColor" stroke-width="2" stroke-linecap="round" stroke-linejoin="round">
<path d="M13.2527 6.13137C12.8567 5.73535 12.6587 5.53735 12.5845 5.30902C12.5192 5.10817 12.5192 4.89183 12.5845 4.69098C12.6587 4.46265 12.8567 4.26465 13.2527 3.86863L16.0911 1.03026C15.3378 0.689624 14.5017 0.5 13.6213 0.5C10.3076 0.5 7.62132 3.18629 7.62132 6.5C7.62132 6.99104 7.68031 7.4683 7.79158 7.92509C7.91074 8.41424 7.97032 8.65882 7.95974 8.81333C7.94867 8.97509 7.92455 9.06115 7.84995 9.20511C7.7787 9.34262 7.64218 9.47914 7.36914 9.75218L1.12132 16C0.292893 16.8284 0.292894 18.1716 1.12132 19C1.94975 19.8284 3.29289 19.8284 4.12132 19L10.3691 12.7522C10.6422 12.4791 10.7787 12.3426 10.9162 12.2714C11.0602 12.1968 11.1462 12.1727 11.308 12.1616C11.4625 12.151 11.7071 12.2106 12.1962 12.3297C12.653 12.441 13.1303 12.5 13.6213 12.5C16.935 12.5 19.6213 9.81371 19.6213 6.5C19.6213 5.61959 19.4317 4.78347 19.0911 4.03026L16.2527 6.86863C15.8567 7.26465 15.6587 7.46265 15.4303 7.53684C15.2295 7.6021 15.0131 7.6021 14.8123 7.53684C14.584 7.46265 14.386 7.26465 13.9899 6.86863L13.2527 6.13137Z"  stroke-linecap="round" stroke-linejoin="round"/>
</svg>
