<svg xmlns="http://www.w3.org/2000/svg" width="24" height="24" viewBox="0 0 21 20.1213" fill="none" stroke="currentColor" stroke-width="2" stroke-linecap="round" stroke-linejoin="round">
<path d="M4.50001 4.50001L9.00001 9.00001M4.50001 4.50001H1.50001L0.500014 1.50001L1.50001 0.500014L4.50001 1.50001V4.50001ZM17.759 1.24103L15.1314 3.86864C14.7354 4.26466 14.5374 4.46267 14.4632 4.691C14.3979 4.89184 14.3979 5.10819 14.4632 5.30903C14.5374 5.53736 14.7354 5.73537 15.1314 6.13138L15.3686 6.36864C15.7647 6.76466 15.9627 6.96267 16.191 7.03686C16.3918 7.10211 16.6082 7.10211 16.809 7.03686C17.0374 6.96267 17.2354 6.76466 17.6314 6.36864L20.0893 3.91073C20.354 4.5549 20.5 5.26041 20.5 6.00001C20.5 9.03758 18.0376 11.5 15 11.5C14.6338 11.5 14.276 11.4642 13.9298 11.3959C13.4436 11.3001 13.2006 11.2521 13.0532 11.2668C12.8965 11.2824 12.8193 11.3059 12.6805 11.3802C12.55 11.4501 12.419 11.581 12.157 11.843L5.00001 19C4.17159 19.8284 2.82844 19.8284 2.00002 19C1.17159 18.1716 1.17159 16.8284 2.00002 16L9.15704 8.84298C9.41899 8.58104 9.54996 8.45007 9.61983 8.3195C9.69411 8.18069 9.7176 8.10348 9.73321 7.94682C9.74789 7.79947 9.69996 7.5564 9.60408 7.07025C9.5358 6.72407 9.50001 6.36622 9.50001 6.00001C9.50001 2.96245 11.9624 0.500014 15 0.500014C16.0055 0.500014 16.948 0.769837 17.759 1.24103ZM10.5001 13.5L16 18.9999C16.8284 19.8283 18.1716 19.8283 19 18.9999C19.8284 18.1715 19.8284 16.8283 19 15.9999L14.4753 11.4753C14.155 11.445 13.8427 11.3872 13.5408 11.3043C13.1517 11.1976 12.725 11.2751 12.4397 11.5604L10.5001 13.5Z"  stroke-linecap="round" stroke-linejoin="round"/>
</svg>
