<svg xmlns="http://www.w3.org/2000/svg" width="24" height="24" viewBox="0 0 21.0002 19.0001" fill="none" stroke="currentColor" stroke-width="2" stroke-linecap="round" stroke-linejoin="round">
<path d="M11.4132 14.5H18.5871M11.4132 14.5L9.50011 18.5M11.4132 14.5L14.2784 8.50902C14.5093 8.02627 14.6247 7.7849 14.7827 7.70862C14.92 7.64228 15.0802 7.64228 15.2175 7.70862C15.3755 7.7849 15.4909 8.02627 15.7218 8.50902L18.5871 14.5M18.5871 14.5L20.5001 18.5M0.50011 2.5H6.50011M6.50011 2.5H10.0001M6.50011 2.5V0.5M10.0001 2.5H12.5001M10.0001 2.5C9.50397 5.45729 8.3527 8.13618 6.66566 10.3844M8.50011 11.5C7.88758 11.2248 7.26276 10.8421 6.66566 10.3844M6.66566 10.3844C5.31313 9.34776 4.10287 7.92664 3.50011 6.5M6.66566 10.3844C5.06097 12.5229 2.97154 14.2718 0.50011 15.5"  stroke-linecap="round" stroke-linejoin="round"/>
</svg>
