<svg xmlns="http://www.w3.org/2000/svg" width="24" height="24" viewBox="0 0 19 21" fill="none" stroke="currentColor" stroke-width="2" stroke-linecap="round" stroke-linejoin="round">
<path d="M13.5 4.5V3.7C13.5 2.5799 13.5 2.01984 13.282 1.59202C13.0903 1.2157 12.7843 0.909734 12.408 0.717987C11.9802 0.5 11.4201 0.5 10.3 0.5H8.7C7.57989 0.5 7.01984 0.5 6.59202 0.717987C6.21569 0.909734 5.90973 1.2157 5.71799 1.59202C5.5 2.01984 5.5 2.5799 5.5 3.7V4.5M0.5 4.5H18.5M16.5 4.5V15.7C16.5 17.3802 16.5 18.2202 16.173 18.862C15.8854 19.4265 15.4265 19.8854 14.862 20.173C14.2202 20.5 13.3802 20.5 11.7 20.5H7.3C5.61984 20.5 4.77976 20.5 4.13803 20.173C3.57354 19.8854 3.1146 19.4265 2.82698 18.862C2.5 18.2202 2.5 17.3802 2.5 15.7V4.5"  stroke-linecap="round" stroke-linejoin="round"/>
</svg>
