<svg xmlns="http://www.w3.org/2000/svg" width="24" height="24" viewBox="0 0 21 21" fill="none" stroke="currentColor" stroke-width="2" stroke-linecap="round" stroke-linejoin="round">
<path d="M10.5 0.5V5.5M10.5 0.5C9.78672 0.5 9.0909 0.574674 8.41991 0.716632M10.5 0.5C11.2132 0.5 11.9091 0.574674 12.58 0.716632M10.5 5.5C7.73855 5.5 5.5 7.7386 5.5 10.5M10.5 5.5C13.2614 5.5 15.5 7.7386 15.5 10.5M10.5 15.5V20.5M10.5 15.5C13.2614 15.5 15.5 13.2614 15.5 10.5M10.5 15.5C7.73855 15.5 5.5 13.2614 5.5 10.5M10.5 20.5C11.2122 20.5 11.907 20.4255 12.577 20.284M10.5 20.5C9.78514 20.5 9.08781 20.425 8.41545 20.2824M3.42891 3.42893L6.96444 6.96447M14.0355 14.0355L17.571 17.5711M0.5 10.5H5.5M0.5 10.5C0.5 11.2133 0.574663 11.9092 0.716641 12.5802M0.5 10.5C0.5 9.78566 0.574882 9.08878 0.717266 8.41683M15.5 10.5H20.5M20.5 10.5C20.5 9.78671 20.4253 9.09081 20.2833 8.41978M20.5 10.5C20.5 11.2131 20.4254 11.9086 20.2835 12.5794M3.42891 17.5711L6.96444 14.0355M14.0355 6.96447L17.571 3.42893M15.9466 2.11208C17.121 2.87619 18.1249 3.88023 18.8888 5.05469M18.886 15.9496C18.122 17.1229 17.1183 18.126 15.9445 18.8893M5.05371 18.8882C3.88104 18.1252 2.87831 17.123 2.11474 15.9508M2.11171 5.05387C2.87545 3.87994 3.87894 2.87633 5.05275 2.11244"  stroke-linecap="round" stroke-linejoin="round"/>
</svg>
