<svg xmlns="http://www.w3.org/2000/svg" width="24" height="24" viewBox="0 0 19 19" fill="none" stroke="currentColor" stroke-width="2" stroke-linecap="round" stroke-linejoin="round">
<g>
<path d="M0.5 5.3C0.5 3.61984 0.5 2.77976 0.826981 2.13803C1.1146 1.57354 1.57354 1.1146 2.13803 0.826981C2.77976 0.5 3.61984 0.5 5.3 0.5H13.7C15.3802 0.5 16.2202 0.5 16.862 0.826981C17.4265 1.1146 17.8854 1.57354 18.173 2.13803C18.5 2.77976 18.5 3.61984 18.5 5.3V13.7C18.5 15.3802 18.5 16.2202 18.173 16.862C17.8854 17.4265 17.4265 17.8854 16.862 18.173C16.2202 18.5 15.3802 18.5 13.7 18.5H5.3C3.61984 18.5 2.77976 18.5 2.13803 18.173C1.57354 17.8854 1.1146 17.4265 0.826981 16.862C0.5 16.2202 0.5 15.3802 0.5 13.7V5.3Z"  stroke-linecap="round" stroke-linejoin="round"/>
<path d="M9.5 3.5L4.9336 9.72691C4.63256 10.1374 4.48205 10.3427 4.4869 10.5142C4.49113 10.6634 4.56185 10.803 4.67972 10.8947C4.81514 11 5.06967 11 5.57872 11H9.5V15.5L14.0664 9.27309C14.3674 8.86259 14.518 8.65734 14.5131 8.48584C14.5089 8.33658 14.4381 8.19701 14.3203 8.10533C14.1849 8 13.9303 8 13.4213 8H9.5V3.5Z"  stroke-linecap="round" stroke-linejoin="round"/>
</g>
</svg>
