<svg xmlns="http://www.w3.org/2000/svg" width="24" height="24" viewBox="0 0 19 21.0001" fill="none" stroke="currentColor" stroke-width="2" stroke-linecap="round" stroke-linejoin="round">
<path d="M5.5 6.50003L1.59346 11.1879C1.24465 11.6065 1.07024 11.8157 1.06758 11.9925C1.06526 12.1461 1.13373 12.2923 1.25326 12.3889C1.39075 12.5 1.66318 12.5 2.20803 12.5H9.5L8.5 20.5L13.5 14.5M13.15 8.50003H16.792C17.3368 8.50003 17.6093 8.50003 17.7467 8.61113C17.8663 8.70772 17.9347 8.85391 17.9324 9.00757C17.9298 9.18432 17.7554 9.3936 17.4065 9.81218L16.0502 11.4397M8.07275 3.41268L10.5 0.500028L9.90025 5.29774M18.5 19.5L0.5 1.50003"  stroke-linecap="round" stroke-linejoin="round"/>
</svg>
